<?xml version="1.0" encoding="UTF-8"?>
<svg version="1.1" xmlns="http://www.w3.org/2000/svg" width="646" height="365">
<path d="M0 0 C3.14587523 1.15055074 5.62992441 2.96028709 8.37109375 4.8671875 C9.36109375 5.1971875 10.35109375 5.5271875 11.37109375 5.8671875 C12.08394531 6.58777344 12.79679687 7.30835937 13.53125 8.05078125 C17.00632305 11.49717419 20.79143053 14.15501785 24.80859375 16.9296875 C25.91557617 17.7040918 25.91557617 17.7040918 27.04492188 18.49414062 C30.12303594 20.64198022 33.21010687 22.7619025 36.3515625 24.81640625 C40.43974052 27.59298253 44.33366969 30.59997912 48.24609375 33.6171875 C49.02984375 34.21917969 49.81359375 34.82117188 50.62109375 35.44140625 C52.53907188 36.91497481 54.45569492 38.39026884 56.37109375 39.8671875 C55.78953426 44.76890323 54.23339509 48.86272205 52.18359375 53.3046875 C51.54766855 54.72184516 50.91359613 56.13983547 50.28125 57.55859375 C49.96172363 58.27418457 49.64219727 58.98977539 49.31298828 59.72705078 C45.70971613 67.91426791 42.22707656 76.15154491 40.3046875 84.9140625 C38.32981072 89.04560387 33.87970478 90.10523933 29.82421875 91.5859375 C28.09181433 92.18541281 26.35736715 92.77901204 24.62109375 93.3671875 C23.76515625 93.66238281 22.90921875 93.95757812 22.02734375 94.26171875 C18.61436782 95.43557562 15.2047376 96.60655689 11.75976562 97.68359375 C10.94572266 97.94011719 10.13167969 98.19664062 9.29296875 98.4609375 C8.56174805 98.68458984 7.83052734 98.90824219 7.07714844 99.13867188 C5.16662633 99.73700211 5.16662633 99.73700211 4.37109375 101.8671875 C3.52160156 102.14820313 2.67210937 102.42921875 1.796875 102.71875 C-2.30343285 104.09331158 -5.73850854 106.03712976 -9.44140625 108.2421875 C-10.17335205 108.674104 -10.90529785 109.10602051 -11.65942383 109.55102539 C-17.96935221 113.3394044 -23.98125016 117.49856261 -29.91918945 121.84326172 C-33.69019214 124.58773155 -37.36697032 126.91186697 -41.62890625 128.8671875 C-42.78613281 127.15722656 -42.78613281 127.15722656 -43.62890625 124.8671875 C-42.72949219 122.64746094 -42.72949219 122.64746094 -41.11328125 120.2265625 C-40.52611328 119.3284082 -39.93894531 118.43025391 -39.33398438 117.50488281 C-38.3662207 116.07547363 -38.3662207 116.07547363 -37.37890625 114.6171875 C-36.07105444 112.62797233 -34.76376648 110.63838634 -33.45703125 108.6484375 C-32.80541016 107.66746094 -32.15378906 106.68648438 -31.48242188 105.67578125 C-28.9660198 101.86272942 -26.53770265 97.99879085 -24.12890625 94.1171875 C-23.72325439 93.46733887 -23.31760254 92.81749023 -22.8996582 92.14794922 C-20.75136255 88.70084006 -18.64030579 85.2344761 -16.56640625 81.7421875 C-14.06735167 77.54119058 -11.45615847 73.4181155 -8.81640625 69.3046875 C-8.4186499 68.68384277 -8.02089355 68.06299805 -7.61108398 67.42333984 C-4.75465739 62.99293864 -4.75465739 62.99293864 -3.62890625 61.8671875 C-2.17353822 61.60046667 -0.71451483 61.35353193 0.74609375 61.1171875 C4.01602758 60.40270435 5.13275307 60.10552818 7.55859375 57.6796875 C8.69882891 53.73271964 8.05039787 51.57565077 6.37109375 47.8671875 C3.89473363 46.49252125 3.89473363 46.49252125 1.37109375 45.8671875 C1.04109375 45.2071875 0.71109375 44.5471875 0.37109375 43.8671875 C-4.63210668 45.65037126 -4.63210668 45.65037126 -8.62890625 48.9921875 C-9.71355162 52.11054295 -9.49543629 52.90066862 -8.81640625 55.9921875 C-8.36517751 59.09501885 -8.40034533 60.45754122 -9.9453125 63.2265625 C-11.32477451 65.02125651 -12.72567733 66.7995545 -14.140625 68.56640625 C-17.08319398 72.3207184 -19.35784205 76.40435988 -21.69140625 80.5546875 C-26.66637233 89.32917159 -31.94625054 97.88750497 -37.32641602 106.41870117 C-37.92768311 107.37236572 -38.5289502 108.32603027 -39.1484375 109.30859375 C-39.73318848 110.22914551 -40.31793945 111.14969727 -40.92041016 112.09814453 C-42.07860182 113.97528227 -43.19460612 115.87898789 -44.27099609 117.80419922 C-44.78484863 118.72088379 -45.29870117 119.63756836 -45.828125 120.58203125 C-46.49654419 121.8194104 -46.49654419 121.8194104 -47.1784668 123.08178711 C-47.65711182 123.67096924 -48.13575684 124.26015137 -48.62890625 124.8671875 C-49.94890625 124.8671875 -51.26890625 124.8671875 -52.62890625 124.8671875 C-52.06955144 116.96262081 -51.1717611 109.15455441 -50.03125 101.3125 C-49.56284221 97.88531119 -49.56284221 97.88531119 -49.6328125 94.484375 C-49.62890625 91.8671875 -49.62890625 91.8671875 -48.62890625 90.8671875 C-48.47062938 89.13291711 -48.37769695 87.39260083 -48.3125 85.65234375 C-48.27060547 84.57275391 -48.22871094 83.49316406 -48.18554688 82.38085938 C-48.14623047 81.24197266 -48.10691406 80.10308594 -48.06640625 78.9296875 C-48.02322266 77.82560547 -47.98003906 76.72152344 -47.93554688 75.58398438 C-47.24430939 63.15584987 -47.24430939 63.15584987 -48.62890625 50.8671875 C-49.02390708 45.3023228 -48.96579009 40.30384844 -47.62890625 34.8671875 C-45.24610625 32.26776932 -43.01583524 31.0603856 -39.8671875 29.4921875 C-36.23718585 27.67061852 -33.24495762 25.49446136 -30.06640625 22.9921875 C-29.51710449 22.56574951 -28.96780273 22.13931152 -28.40185547 21.69995117 C-24.13628123 18.35349606 -20.11510762 14.77395596 -16.109375 11.12109375 C-13.369089 8.63110159 -10.61848323 6.16267322 -7.81640625 3.7421875 C-6.94371094 2.97648437 -6.07101563 2.21078125 -5.171875 1.421875 C-2.62890625 -0.1328125 -2.62890625 -0.1328125 0 0 Z " fill="#2B46FA" transform="translate(113.62890625,107.1328125)"/>
<path d="M0 0 C1.12535156 0.00580078 1.12535156 0.00580078 2.2734375 0.01171875 C3.02367187 0.00785156 3.77390625 0.00398438 4.546875 0 C10.14682697 0.01010822 10.14682697 0.01010822 11.2734375 1.13671875 C11.36091957 3.06339382 11.38041084 4.99323736 11.37109375 6.921875 C11.36787109 8.09169922 11.36464844 9.26152344 11.36132812 10.46679688 C11.35294922 11.69849609 11.34457031 12.93019531 11.3359375 14.19921875 C11.33142578 15.43478516 11.32691406 16.67035156 11.32226562 17.94335938 C11.31043358 21.00785992 11.29394923 24.07226596 11.2734375 27.13671875 C11.78640381 26.85304443 12.29937012 26.56937012 12.82788086 26.27709961 C19.3542431 22.81455039 25.09609264 21.72297882 32.390625 23.71484375 C35.66621928 25.03632814 38.67249885 26.74385519 41.2734375 29.13671875 C41.2734375 29.79671875 41.2734375 30.45671875 41.2734375 31.13671875 C41.9334375 31.13671875 42.5934375 31.13671875 43.2734375 31.13671875 C43.9243634 32.38407442 44.56895419 33.63473707 45.2109375 34.88671875 C45.57058594 35.5828125 45.93023437 36.27890625 46.30078125 36.99609375 C49.8594664 44.82805947 49.63016719 55.55587865 47.21484375 63.7109375 C43.44288876 71.8579514 38.46203523 76.61512025 30.2109375 80.01171875 C19.49019944 83.14091518 6.75609756 81.63093877 -3.7265625 78.13671875 C-3.7265625 78.79671875 -3.7265625 79.45671875 -3.7265625 80.13671875 C-4.7165625 79.80671875 -5.7065625 79.47671875 -6.7265625 79.13671875 C-6.74968642 68.98405724 -6.76747784 58.83140195 -6.77837467 48.67871952 C-6.78360339 43.96492142 -6.79070084 39.25114128 -6.80200195 34.53735352 C-6.81283123 29.99216471 -6.81883942 25.44699323 -6.82143974 20.90179253 C-6.82329392 19.16376917 -6.82691439 17.42574681 -6.83229256 15.68773079 C-6.83950353 13.2619328 -6.84055342 10.83620729 -6.84008789 8.41040039 C-6.84368317 7.68463806 -6.84727844 6.95887573 -6.85098267 6.21112061 C-6.83786288 -0.06576201 -6.23768151 0.01125935 0 0 Z M11.2734375 42.13671875 C10.66188126 46.25801025 10.80310676 50.29462808 10.9609375 54.44921875 C10.98349609 55.57134766 11.00605469 56.69347656 11.02929688 57.84960938 C11.08809974 60.61334411 11.17023349 63.37434429 11.2734375 66.13671875 C15.38271753 68.49795315 18.76598034 68.34888352 23.2734375 67.13671875 C27.65557473 64.70219806 29.26953625 61.82908622 30.7734375 57.21484375 C32.13633531 51.55029974 31.30641437 46.52410746 29.2734375 41.13671875 C27.85677083 38.55338542 27.85677083 38.55338542 25.2734375 37.13671875 C18.93481283 35.87848988 15.10744218 36.5867959 11.2734375 42.13671875 Z " fill="#2C44F8" transform="translate(385.7265625,120.86328125)"/>
<path d="M0 0 C0.79792969 0.00386719 1.59585937 0.00773437 2.41796875 0.01171875 C3.21589844 0.00785156 4.01382812 0.00398438 4.8359375 0 C10.79136108 0.01011108 10.79136108 0.01011108 11.91796875 1.13671875 C12.01084135 2.54896921 12.03543647 3.96580809 12.03149414 5.38110352 C12.03141861 6.28196182 12.03134308 7.18282013 12.03126526 8.11097717 C12.02610397 9.09013596 12.02094269 10.06929474 12.015625 11.078125 C12.01421005 12.07553207 12.0127951 13.07293915 12.01133728 14.10057068 C12.00571989 17.30014999 11.99316446 20.49966044 11.98046875 23.69921875 C11.97545599 25.8626292 11.9708927 28.02604074 11.96679688 30.18945312 C11.95574482 35.505232 11.93898979 40.82097046 11.91796875 46.13671875 C16.6809586 40.19757036 16.6809586 40.19757036 20.8671875 33.8515625 C22.97572875 30.48263479 24.62569077 28.41214125 27.91796875 26.13671875 C34.47764384 24.79762152 41.30513708 25.45493437 47.91796875 26.13671875 C46.48796634 30.74265675 44.12880579 33.21163097 40.66796875 36.51171875 C39.67687985 37.47762425 38.68728878 38.44506907 37.69921875 39.4140625 C36.78140625 40.31253906 35.86359375 41.21101563 34.91796875 42.13671875 C32.67723065 44.41508119 30.81850718 46.54987477 28.91796875 49.13671875 C29.54899526 57.55040554 39.79585361 66.54748657 44.9375 72.7265625 C45.59105469 73.52191406 46.24460937 74.31726563 46.91796875 75.13671875 C47.51996094 75.83925781 48.12195313 76.54179687 48.7421875 77.265625 C49.13019531 77.88308594 49.51820313 78.50054687 49.91796875 79.13671875 C49.42296875 80.62171875 49.42296875 80.62171875 48.91796875 82.13671875 C32.25716892 82.40302524 32.25716892 82.40302524 27.4140625 79.78125 C25.55454401 77.67977007 24.27974849 75.59438985 22.91796875 73.13671875 C21.74384178 71.28607349 20.54496597 69.45267841 19.34619141 67.61791992 C18.52857635 66.35352859 17.72443918 65.080304 16.93505859 63.7980957 C14.9844558 60.40443263 14.9844558 60.40443263 11.91796875 58.13671875 C11.91796875 65.72671875 11.91796875 73.31671875 11.91796875 81.13671875 C5.64796875 81.13671875 -0.62203125 81.13671875 -7.08203125 81.13671875 C-7.10458241 70.72328564 -7.12294642 60.30986862 -7.13384342 49.89641666 C-7.13907222 45.06155048 -7.14616979 40.22670181 -7.1574707 35.3918457 C-7.16829972 30.72994755 -7.17430811 26.06806629 -7.17690849 21.40615654 C-7.17876272 19.62347587 -7.18238328 17.84079616 -7.18776131 16.05812263 C-7.19497194 13.57005915 -7.19602218 11.08206632 -7.19555664 8.59399414 C-7.19915192 7.84953033 -7.20274719 7.10506653 -7.20645142 6.33804321 C-7.19310617 -0.21007289 -6.48898793 0.01101696 0 0 Z " fill="#2C44FB" transform="translate(326.08203125,118.86328125)"/>
<path d="M0 0 C4.53999831 3.66505217 7.62895672 8.79189059 8.82421875 14.47265625 C8.98729151 17.36746766 9.10456033 20.24356665 9.17578125 23.140625 C9.19893402 23.97604324 9.22208679 24.81146149 9.24594116 25.67219543 C9.29346167 27.43301638 9.33870971 29.19389993 9.38183594 30.95483398 C9.44923696 33.66088719 9.52690602 36.36651607 9.60546875 39.07226562 C9.65035763 40.78253597 9.69464933 42.49282212 9.73828125 44.203125 C9.76217926 45.01661911 9.78607727 45.83011322 9.81069946 46.66825867 C9.85433282 48.60257104 9.84477647 50.53796103 9.82421875 52.47265625 C7.70496271 54.59191229 3.20460945 53.89096642 0.26171875 54.03515625 C-0.54458984 54.07833984 -1.35089844 54.12152344 -2.18164062 54.16601562 C-4.1794693 54.27240887 -6.17760195 54.37306513 -8.17578125 54.47265625 C-8.17578125 53.81265625 -8.17578125 53.15265625 -8.17578125 52.47265625 C-9.16578125 51.97765625 -9.16578125 51.97765625 -10.17578125 51.47265625 C-10.01424561 50.92174316 -9.85270996 50.37083008 -9.6862793 49.80322266 C-8.68503099 45.23224403 -8.99109884 40.5079534 -8.98828125 35.84765625 C-8.96991211 34.28337891 -8.96991211 34.28337891 -8.95117188 32.6875 C-8.93872765 26.04228538 -9.58850202 19.92789154 -11.17578125 13.47265625 C-16.94648359 12.3782127 -20.053609 12.09951842 -25.17578125 15.47265625 C-26.75808933 18.6372724 -26.41735938 22.06344992 -26.4921875 25.54296875 C-26.5129686 26.33919647 -26.53374969 27.13542419 -26.55516052 27.95578003 C-26.62062274 30.5029831 -26.6795254 33.0502905 -26.73828125 35.59765625 C-26.78146965 37.32292752 -26.82508404 39.04818818 -26.86914062 40.7734375 C-26.9763007 45.0064031 -27.07757748 49.23947378 -27.17578125 53.47265625 C-29.59189658 53.69503502 -32.00755295 53.90097964 -34.42578125 54.09765625 C-35.10769531 54.16210938 -35.78960937 54.2265625 -36.4921875 54.29296875 C-40.42568163 54.59848286 -42.76725057 54.40064754 -46.17578125 52.47265625 C-46.20104773 44.94295973 -46.21861266 37.41327405 -46.23071289 29.88354492 C-46.23575495 27.31973868 -46.24258839 24.75593534 -46.2512207 22.19213867 C-46.26329189 18.51610604 -46.26901067 14.84011127 -46.2734375 11.1640625 C-46.27859879 10.00991348 -46.28376007 8.85576447 -46.28907776 7.66664124 C-46.28915329 6.60561691 -46.28922882 5.54459259 -46.28930664 4.45141602 C-46.29152725 3.51209732 -46.29374786 2.57277863 -46.29603577 1.60499573 C-46.17578125 -0.52734375 -46.17578125 -0.52734375 -45.17578125 -1.52734375 C-42.47923271 -1.60053996 -39.80886667 -1.61976912 -37.11328125 -1.58984375 C-36.35466797 -1.58533203 -35.59605469 -1.58082031 -34.81445312 -1.57617188 C-32.93486254 -1.56435055 -31.05531226 -1.54641453 -29.17578125 -1.52734375 C-28.51578125 0.12265625 -27.85578125 1.77265625 -27.17578125 3.47265625 C-26.47453125 2.85390625 -25.77328125 2.23515625 -25.05078125 1.59765625 C-17.74892532 -3.7993677 -7.96560688 -4.50791951 0 0 Z " fill="#2B44FA" transform="translate(301.17578125,146.52734375)"/>
<path d="M0 0 C5.61 0 11.22 0 17 0 C17.62648438 2.04703125 18.25296875 4.0940625 18.8984375 6.203125 C19.50990147 8.19248014 20.12256829 10.18146107 20.73535156 12.17041016 C21.15946218 13.54925529 21.58232796 14.92848397 22.00390625 16.30810547 C22.61128418 18.29497619 23.22317589 20.280409 23.8359375 22.265625 C24.20251465 23.45961914 24.5690918 24.65361328 24.94677734 25.88378906 C25.80191975 28.41393224 26.72126336 30.66491569 28 33 C28.19634033 32.3201001 28.39268066 31.6402002 28.5949707 30.93969727 C29.49893282 27.81341748 30.40569779 24.68795712 31.3125 21.5625 C31.7755957 19.95858398 31.7755957 19.95858398 32.24804688 18.32226562 C34.03673659 12.16540733 35.92661579 6.06704119 38 0 C43.61 0 49.22 0 55 0 C53.88034386 8.95724915 53.88034386 8.95724915 52.1652832 12.84570312 C49.9904891 17.9829754 48.15554422 23.19028221 46.35546875 28.46875 C45.67204214 30.44168986 44.98777142 32.41433748 44.30273438 34.38671875 C43.24207202 37.44485969 42.18606616 40.50421796 41.14428711 43.56884766 C32.10863154 70.09925145 32.10863154 70.09925145 23.5 75.5 C17.48678861 78.0770906 12.56643923 79.26801793 6 79 C5.20439236 76.08500057 4.74677501 73.25438581 4.4375 70.25 C4.35371094 69.45078125 4.26992188 68.6515625 4.18359375 67.828125 C4.12300781 67.22484375 4.06242187 66.6215625 4 66 C7 64 7 64 10 64.0625 C12.91365488 64.25243826 12.91365488 64.25243826 14.75 62.9375 C17.24623295 59.06833893 18.39876625 55.95816999 17.47515869 51.42272949 C16.49792993 48.32816072 15.40423127 45.30161599 14.2578125 42.265625 C13.8554538 41.15064636 13.45309509 40.03566772 13.0385437 38.88690186 C11.75266295 35.33415339 10.43999208 31.7920646 9.125 28.25 C7.82247208 24.6919335 6.52553993 21.13191422 5.23287964 17.57025146 C4.42738895 15.35634096 3.61517752 13.14486207 2.79568481 10.93609619 C2.4288559 9.93785828 2.06202698 8.93962036 1.68408203 7.91113281 C1.35828156 7.03289856 1.03248108 6.15466431 0.69680786 5.24981689 C0 3 0 3 0 0 Z " fill="#2B43F6" transform="translate(433,145)"/>
<path d="M0 0 C7.18428137 4.39853961 11.63753988 8.60628353 14.0625 16.875 C15.06603246 22.18503004 15.18264832 26.59171602 14.0625 31.875 C-10.92015839 33.27527356 -10.92015839 33.27527356 -20.9375 31.875 C-20.57588225 35.0262404 -20.32688264 37.09623471 -18.9375 39.875 C-13.46316009 43.89800328 -6.30002901 43.0671175 0.09375 42.40234375 C3.65331163 41.7700532 6.01635168 40.76855166 9.0625 38.875 C9.7225 38.875 10.3825 38.875 11.0625 38.875 C12.0525 42.835 13.0425 46.795 14.0625 50.875 C3.7726695 56.48763482 -6.16468073 58.23153885 -17.9375 56.875 C-24.97023933 54.69131838 -30.77986358 51.33760065 -34.82421875 45.07421875 C-39.15706478 36.51494747 -40.21584191 28.14503307 -37.8125 18.875 C-34.97160902 10.41808842 -31.05076253 4.76035338 -22.98828125 0.75 C-16.26716959 -2.11767431 -6.91638467 -2.69058442 0 0 Z M-18.9375 13.875 C-20.74685423 16.50678797 -20.9375 17.6361766 -20.9375 20.875 C-14.6675 20.875 -8.3975 20.875 -1.9375 20.875 C-1.46217016 16.10292066 -1.46217016 16.10292066 -3.5 13.625 C-8.84642914 9.78653805 -13.62708355 10.29355635 -18.9375 13.875 Z " fill="#2B42F2" transform="translate(567.9375,145.125)"/>
<path d="M0 0 C5.99354411 0.15672929 10.73667798 3.34227168 15.828125 6.234375 C23.60213562 10.59616888 31.03596904 13.87356769 39.578125 16.484375 C39.248125 11.864375 38.918125 7.244375 38.578125 2.484375 C41.89067826 2.45754064 45.20301683 2.4376172 48.515625 2.421875 C49.46115234 2.41349609 50.40667969 2.40511719 51.38085938 2.39648438 C52.72954102 2.39165039 52.72954102 2.39165039 54.10546875 2.38671875 C55.35444946 2.37886353 55.35444946 2.37886353 56.62866211 2.37084961 C58.578125 2.484375 58.578125 2.484375 59.578125 3.484375 C59.72239114 8.15282728 59.62020915 12.81303453 59.578125 17.484375 C65.518125 17.484375 71.458125 17.484375 77.578125 17.484375 C77.8875 21.0421875 77.8875 21.0421875 78.203125 24.671875 C78.27354004 25.40946045 78.34395508 26.1470459 78.41650391 26.90698242 C78.75698072 31.36145375 78.31790908 33.1349148 76.578125 37.484375 C71.298125 37.484375 66.018125 37.484375 60.578125 37.484375 C61.568125 39.134375 62.558125 40.784375 63.578125 42.484375 C64.22363523 47.0029466 64.10527869 48.76142136 61.390625 52.484375 C58.578125 54.484375 58.578125 54.484375 56.171875 54.33984375 C53.11171197 53.33054299 51.58316542 52.02120539 49.265625 49.796875 C45.21057567 46.04096865 41.06251421 42.70776292 36.578125 39.484375 C34.99837891 38.3396875 34.99837891 38.3396875 33.38671875 37.171875 C26.60705192 32.28190218 19.76287656 27.57074414 12.7109375 23.078125 C12.00710937 22.5521875 11.30328125 22.02625 10.578125 21.484375 C10.578125 20.824375 10.578125 20.164375 10.578125 19.484375 C9.8975 19.21625 9.216875 18.948125 8.515625 18.671875 C7.54625 18.28 6.576875 17.888125 5.578125 17.484375 C4.423125 17.071875 3.268125 16.659375 2.078125 16.234375 C-2.23774097 14.07644202 -3.86539044 12.55877227 -6.421875 8.484375 C-6.32062191 3.2192144 -5.46827424 0.77404795 0 0 Z M40.578125 19.484375 C40.908125 24.764375 41.238125 30.044375 41.578125 35.484375 C47.188125 35.484375 52.798125 35.484375 58.578125 35.484375 C58.59875 33.03 58.619375 30.575625 58.640625 28.046875 C58.649729 27.27287354 58.65883301 26.49887207 58.66821289 25.70141602 C58.67537413 23.96215783 58.62837202 22.22292196 58.578125 20.484375 C57.36383512 19.04048929 57.36383512 19.04048929 53.76171875 19.38671875 C52.17965818 19.39339411 50.59761341 19.40535625 49.015625 19.421875 C48.20931641 19.42638672 47.40300781 19.43089844 46.57226562 19.43554688 C44.57418744 19.44736982 42.57614717 19.46530586 40.578125 19.484375 Z " fill="#2C47FD" transform="translate(120.421875,92.515625)"/>
<path d="M0 0 C0 4.62 0 9.24 0 14 C3.96 14 7.92 14 12 14 C12.94043148 18.70215739 13.15775038 22.26748847 13 27 C12.505 27.495 12.505 27.495 12 28 C8.04 28 4.08 28 0 28 C0.33 37.24 0.66 46.48 1 56 C4.63 56 8.26 56 12 56 C13.73956658 57.73956658 13.37190386 60.1936622 13.5625 62.5625 C13.64628906 63.57441406 13.73007812 64.58632812 13.81640625 65.62890625 C13.90728516 66.80259766 13.90728516 66.80259766 14 68 C7.50431671 72.33045553 -1.19990413 71.84790015 -8.67578125 70.52734375 C-11.31805522 69.66676679 -12.89117046 68.81371637 -15 67 C-18.49694787 58.76991136 -18.52031522 49.54869638 -18.6875 40.75 C-18.73874023 38.89955078 -18.73874023 38.89955078 -18.79101562 37.01171875 C-18.87251448 34.00790362 -18.94197756 31.00434445 -19 28 C-20.65 28 -22.3 28 -24 28 C-25.29721449 24.10835652 -25.13033993 21.10570774 -25 17 C-24.67 16.34 -24.34 15.68 -24 15 C-20.9375 14.375 -20.9375 14.375 -18 14 C-18.01160156 13.21753906 -18.02320313 12.43507812 -18.03515625 11.62890625 C-18.04417969 10.61699219 -18.05320312 9.60507813 -18.0625 8.5625 C-18.07410156 7.55316406 -18.08570313 6.54382813 -18.09765625 5.50390625 C-18 3 -18 3 -17 2 C-14.71591427 1.59984687 -12.42209129 1.25458315 -10.125 0.9375 C-8.24167969 0.67259766 -8.24167969 0.67259766 -6.3203125 0.40234375 C-3 0 -3 0 0 0 Z " fill="#2C43F7" transform="translate(513,131)"/>
<path d="M0 0 C5.94 0 11.88 0 18 0 C18 26.07 18 52.14 18 79 C14.81175432 80.59412284 11.37103338 80.10174735 7.875 80.0625 C7.12089844 80.05798828 6.36679688 80.05347656 5.58984375 80.04882812 C3.72652873 80.03703499 1.86325445 80.01909942 0 80 C-1.09604767 76.71185698 -1.09888592 74.32952483 -1.0625 70.87109375 C-1.05476562 69.67162109 -1.04703125 68.47214844 -1.0390625 67.23632812 C-1.02617187 65.98271484 -1.01328125 64.72910156 -1 63.4375 C-0.97457277 60.95707409 -0.95351186 58.47659831 -0.9375 55.99609375 C-0.92589844 54.89450928 -0.91429687 53.7929248 -0.90234375 52.65795898 C-0.81543712 50.02406576 -0.81543712 50.02406576 -2 48 C-1.34 48 -0.68 48 0 48 C-0.66 45.36 -1.32 42.72 -2 40 C-1.34 40 -0.68 40 0 40 C-0.03552979 38.82381104 -0.07105957 37.64762207 -0.10766602 36.43579102 C-0.23765464 32.08811217 -0.36094794 27.74026516 -0.48217773 23.39233398 C-0.5356766 21.50751524 -0.5910118 19.62274772 -0.64819336 17.73803711 C-0.7298851 15.03510589 -0.8050554 12.33206161 -0.87890625 9.62890625 C-0.90594131 8.78099014 -0.93297638 7.93307404 -0.96083069 7.0594635 C-1.01280526 5.04026894 -1.01188213 3.01982842 -1 1 C-0.67 0.67 -0.34 0.34 0 0 Z " fill="#2A42F3" transform="translate(228,121)"/>
<path d="M0 0 C3.31255326 -0.02683436 6.62489183 -0.0467578 9.9375 -0.0625 C10.88302734 -0.07087891 11.82855469 -0.07925781 12.80273438 -0.08789062 C14.15141602 -0.09272461 14.15141602 -0.09272461 15.52734375 -0.09765625 C16.77632446 -0.10551147 16.77632446 -0.10551147 18.05053711 -0.11352539 C20 0 20 0 21 1 C21.14426614 5.66845228 21.04208415 10.32865953 21 15 C26.94 15 32.88 15 39 15 C39.20625 17.371875 39.4125 19.74375 39.625 22.1875 C39.69541504 22.92508545 39.76583008 23.6626709 39.83837891 24.42260742 C40.17885572 28.87707875 39.73978408 30.6505398 38 35 C33.05 34.67 28.1 34.34 23 34 C23 33.67 23 33.34 23 33 C27.95 33 32.9 33 38 33 C38 27.72 38 22.44 38 17 C32.39 17 26.78 17 21 17 C21 23.27 21 29.54 21 36 C20.67 35.34 20.34 34.68 20 34 C18.97132813 34.24363281 18.97132813 34.24363281 17.921875 34.4921875 C14.64890161 35.06101977 11.5708515 35.13251324 8.25 35.125 C7.10015625 35.12757813 5.9503125 35.13015625 4.765625 35.1328125 C2 35 2 35 1 34 C0.92680379 31.30345146 0.90757463 28.63308542 0.9375 25.9375 C0.94201172 25.17888672 0.94652344 24.42027344 0.95117188 23.63867188 C0.9629932 21.75908129 0.98092922 19.87953101 1 18 C1.66 18 2.32 18 3 18 C3 22.95 3 27.9 3 33 C10.92 32.505 10.92 32.505 19 32 C19 26.72 19 21.44 19 16 C17.67226562 16.03480469 16.34453125 16.06960937 14.9765625 16.10546875 C-4.56491306 16.46382457 -4.56491306 16.46382457 -11 13 C-11.33 12.34 -11.66 11.68 -12 11 C-7.51474352 11.656379 -3.33085971 12.70074209 1 14 C0.67 9.38 0.34 4.76 0 0 Z " fill="#293CD1" transform="translate(159,95)"/>
<path d="M0 0 C5.61 0 11.22 0 17 0 C17.020625 2.619375 17.04125 5.23875 17.0625 7.9375 C17.071604 8.7637085 17.08070801 9.58991699 17.09008789 10.44116211 C17.09723945 12.29433759 17.0502852 14.14749308 17 16 C15.24440058 17.75559942 12.96417558 17.13221919 10.62890625 17.13671875 C9.92636719 17.13285156 9.22382813 17.12898438 8.5 17.125 C7.79746094 17.12886719 7.09492188 17.13273437 6.37109375 17.13671875 C1.12661378 17.12661378 1.12661378 17.12661378 0 16 C-0.07325436 13.3013095 -0.09222351 10.63497444 -0.0625 7.9375 C-0.041875 5.318125 -0.02125 2.69875 0 0 Z " fill="#2F48FE" transform="translate(183,79)"/>
<path d="M0 0 C5.61 0 11.22 0 17 0 C17 5.28 17 10.56 17 16 C12.1171875 16.29296875 12.1171875 16.29296875 7.234375 16.5859375 C3.74676483 16.85160399 3.74676483 16.85160399 0 19 C0 12.73 0 6.46 0 0 Z " fill="#2D46FD" transform="translate(180,112)"/>
<path d="M0 0 C1.48831242 0.00667405 2.97660807 0.01863442 4.46484375 0.03515625 C5.22345703 0.03966797 5.98207031 0.04417969 6.76367188 0.04882812 C8.64326246 0.06064945 10.52281274 0.07858547 12.40234375 0.09765625 C12.40234375 0.75765625 12.40234375 1.41765625 12.40234375 2.09765625 C7.45234375 2.09765625 2.50234375 2.09765625 -2.59765625 2.09765625 C-2.59765625 26.51765625 -2.59765625 50.93765625 -2.59765625 76.09765625 C5.13628809 77.38664697 11.95428854 78.44051136 19.65234375 78.41015625 C20.90144531 78.43432617 20.90144531 78.43432617 22.17578125 78.45898438 C32.05008164 78.46672285 38.27124106 75.05772219 45.27734375 68.28515625 C45.64859375 67.89328125 46.01984375 67.50140625 46.40234375 67.09765625 C45.26974821 71.91118728 42.54800276 74.03914608 38.65234375 76.73828125 C27.48139059 83.48739879 13.66033157 82.11805972 1.40234375 79.09765625 C0.41234375 78.76765625 -0.57765625 78.43765625 -1.59765625 78.09765625 C-1.59765625 78.75765625 -1.59765625 79.41765625 -1.59765625 80.09765625 C-2.58765625 79.76765625 -3.57765625 79.43765625 -4.59765625 79.09765625 C-4.62078017 68.94499474 -4.63857159 58.79233945 -4.64946842 48.63965702 C-4.65469714 43.92585892 -4.66179459 39.21207878 -4.6730957 34.49829102 C-4.68392498 29.95310221 -4.68993317 25.40793073 -4.69253349 20.86273003 C-4.69438767 19.12470667 -4.69800814 17.38668431 -4.70338631 15.64866829 C-4.71059728 13.2228703 -4.71164717 10.79714479 -4.71118164 8.37133789 C-4.71477692 7.64557556 -4.71837219 6.91981323 -4.72207642 6.17205811 C-4.70944292 0.12783504 -4.70944292 0.12783504 0 0 Z " fill="#2333C6" transform="translate(383.59765625,120.90234375)"/>
<path d="M0 0 C5.28 0 10.56 0 16 0 C16 4.29 16 8.58 16 13 C10.72 13 5.44 13 0 13 C0 8.71 0 4.42 0 0 Z " fill="#2D47FE" transform="translate(162,97)"/>
<path d="M0 0 C4.95 0 9.9 0 15 0 C15 0.33 15 0.66 15 1 C10.71 1 6.42 1 2 1 C2 17.83 2 34.66 2 52 C6.95 52 11.9 52 17 52 C16.96519531 49.75960937 16.93039062 47.51921875 16.89453125 45.2109375 C16.87109454 43.02654289 16.85290151 40.84216262 16.83520508 38.65771484 C16.82017457 37.14658273 16.79974436 35.63549382 16.77368164 34.12451172 C16.73704311 31.94487813 16.72021662 29.76582425 16.70703125 27.5859375 C16.6913208 26.2767334 16.67561035 24.9675293 16.65942383 23.61865234 C17.02808097 19.70163722 17.90775489 17.3125408 20 14 C22.6875 12.625 22.6875 12.625 25 12 C24.18958252 12.81549316 23.37916504 13.63098633 22.54418945 14.47119141 C19.35616926 18.31638103 19.26773184 21.60633761 19.29296875 26.4609375 C19.27784744 27.25150543 19.26272614 28.04207336 19.24714661 28.8565979 C19.20441654 31.36302539 19.19544648 33.86824524 19.1875 36.375 C19.16434405 38.08206303 19.13897642 39.78909757 19.11132812 41.49609375 C19.04862175 45.66416855 19.01617174 49.83149543 19 54 C16.58388467 54.22237877 14.1682283 54.42832339 11.75 54.625 C11.06808594 54.68945312 10.38617188 54.75390625 9.68359375 54.8203125 C5.49521834 55.14562321 3.89183658 54.94591829 0 53 C0 35.51 0 18.02 0 0 Z " fill="#2334CE" transform="translate(255,146)"/>
<path d="M0 0 C0.79792969 0.00386719 1.59585937 0.00773437 2.41796875 0.01171875 C3.21589844 0.00785156 4.01382812 0.00398438 4.8359375 0 C10.79136108 0.01011108 10.79136108 0.01011108 11.91796875 1.13671875 C12.02108912 2.50731468 12.05645828 3.88311534 12.06323242 5.25756836 C12.06961227 6.13195053 12.07599213 7.0063327 12.08256531 7.9072113 C12.08367813 8.8582222 12.08479095 9.80923309 12.0859375 10.7890625 C12.0892659 11.75953018 12.0925943 12.72999786 12.09602356 13.72987366 C12.10109705 15.78695195 12.10343176 17.8440385 12.10327148 19.90112305 C12.10545701 23.05726619 12.12360566 26.21305946 12.14257812 29.36914062 C12.14551208 31.36328005 12.14749686 33.35742114 12.1484375 35.3515625 C12.15562302 36.30054916 12.16280853 37.24953583 12.17021179 38.22727966 C12.16713516 39.104814 12.16405853 39.98234833 12.16088867 40.88647461 C12.16231369 41.66067245 12.16373871 42.4348703 12.16520691 43.23252869 C11.91796875 45.13671875 11.91796875 45.13671875 9.91796875 47.13671875 C9.91796875 32.28671875 9.91796875 17.43671875 9.91796875 2.13671875 C4.96796875 2.13671875 0.01796875 2.13671875 -5.08203125 2.13671875 C-5.08203125 12.69671875 -5.08203125 23.25671875 -5.08203125 34.13671875 C-5.41203125 34.13671875 -5.74203125 34.13671875 -6.08203125 34.13671875 C-6.25189132 30.32435413 -6.41733089 26.51180949 -6.58203125 22.69921875 C-6.62972656 21.62994141 -6.67742187 20.56066406 -6.7265625 19.45898438 C-6.98823098 13.3471564 -7.23385312 7.25387486 -7.08203125 1.13671875 C-5.19650595 -0.74880655 -2.50434294 0.00425186 0 0 Z " fill="#283BD7" transform="translate(326.08203125,118.86328125)"/>
<path d="M0 0 C3.3406671 1.08765906 5.81365951 2.87580661 8.6875 4.875 C9.6775 5.205 10.6675 5.535 11.6875 5.875 C12.875 7.9375 12.875 7.9375 13.6875 9.875 C10.3162627 8.71613718 7.6116669 7.18125016 4.6875 5.1875 C2.26115894 3.66820233 1.00054474 2.90554095 -1.875 2.625 C-5.01156957 4.23349722 -7.03688753 6.37914465 -9.44921875 8.92578125 C-18.67492627 18.5769931 -30.0805632 26.73531924 -41.3125 33.875 C-41.9725 33.545 -42.6325 33.215 -43.3125 32.875 C-42.28511719 32.11316406 -41.25773437 31.35132813 -40.19921875 30.56640625 C-28.89785306 22.15844189 -17.95079872 13.53179198 -7.625 3.94140625 C-3.03086007 -0.16383027 -3.03086007 -0.16383027 0 0 Z " fill="#2B3ECD" transform="translate(113.3125,107.125)"/>
<path d="M0 0 C5.61 0 11.22 0 17 0 C17.020625 2.619375 17.04125 5.23875 17.0625 7.9375 C17.071604 8.7637085 17.08070801 9.58991699 17.09008789 10.44116211 C17.09723945 12.29433759 17.0502852 14.14749308 17 16 C15.24440058 17.75559942 12.96417558 17.13221919 10.62890625 17.13671875 C9.92636719 17.13285156 9.22382813 17.12898438 8.5 17.125 C7.79746094 17.12886719 7.09492188 17.13273437 6.37109375 17.13671875 C1.12661378 17.12661378 1.12661378 17.12661378 0 16 C-0.07325436 13.3013095 -0.09222351 10.63497444 -0.0625 7.9375 C-0.041875 5.318125 -0.02125 2.69875 0 0 Z M2 2 C2 6.29 2 10.58 2 15 C6.29 15 10.58 15 15 15 C15 10.71 15 6.42 15 2 C10.71 2 6.42 2 2 2 Z " fill="#3142CA" transform="translate(183,79)"/>
<path d="M0 0 C4.07774326 4.07774326 6.96914045 11.46349575 7.01953125 17.23828125 C6.00821114 21.13661774 3.92483832 24.30606997 1 27 C-1.67624169 27.98436476 -4.17507293 28.4820967 -7 29 C-6.67 31.31 -6.34 33.62 -6 36 C-2.37 36 1.26 36 5 36 C5.33 36.66 5.66 37.32 6 38 C1.126739 39.5912689 -2.80790596 40.21192221 -8 40 C-8.79560764 37.08500057 -9.25322499 34.25438581 -9.5625 31.25 C-9.64628906 30.45078125 -9.73007812 29.6515625 -9.81640625 28.828125 C-9.87699219 28.22484375 -9.93757813 27.6215625 -10 27 C-7 25 -7 25 -4 25.0625 C-1.08634512 25.25243826 -1.08634512 25.25243826 0.75 23.9375 C2.66346941 20.97162241 3.88307201 18.52630204 4 15 C3.18175283 11.78931442 2.13072912 8.76494883 0.9453125 5.671875 C0 3 0 3 0 0 Z " fill="#2739CD" transform="translate(447,184)"/>
<path d="M0 0 C5.88436414 0.14897124 10.5439616 3.15144637 15.5625 5.96875 C16.52800781 6.49339844 17.49351562 7.01804687 18.48828125 7.55859375 C20.85490708 8.84735039 23.21206232 10.15077139 25.5625 11.46875 C25.5625 12.12875 25.5625 12.78875 25.5625 13.46875 C19.60037309 11.77327016 14.72437217 8.78128821 9.484375 5.5703125 C5.3294896 3.12812795 2.53417744 1.92497278 -2.4375 2.46875 C-2.7675 4.44875 -3.0975 6.42875 -3.4375 8.46875 C1.78270095 12.31315967 6.99014755 16.13797683 12.4375 19.65625 C15.9400501 21.95145788 18.74416826 24.37767648 21.5625 27.46875 C17.45410936 26.01872977 14.05905387 24.0708366 10.5625 21.46875 C10.5625 20.80875 10.5625 20.14875 10.5625 19.46875 C9.881875 19.200625 9.20125 18.9325 8.5 18.65625 C7.530625 18.264375 6.56125 17.8725 5.5625 17.46875 C4.4075 17.05625 3.2525 16.64375 2.0625 16.21875 C-2.25336597 14.06081702 -3.88101544 12.54314727 -6.4375 8.46875 C-6.33607719 3.19476406 -5.48357238 0.74775987 0 0 Z " fill="#2A3DC8" transform="translate(120.4375,92.53125)"/>
<path d="M0 0 C0.33 0 0.66 0 1 0 C1 14.52 1 29.04 1 44 C5.95 44 10.9 44 16 44 C16 37.4 16 30.8 16 24 C16.33 24 16.66 24 17 24 C17 31.26 17 38.52 17 46 C11.06 46 5.12 46 -1 46 C-1.12793668 30.63338345 -0.80667988 15.3462266 0 0 Z " fill="#2031C6" transform="translate(320,154)"/>
<path d="M0 0 C9.44792827 4.48000355 17.50833649 10.96205791 25.10302734 18.05029297 C28.6150236 21.22145826 31.06540635 22.83260228 36 23 C37.44182507 21.78602681 37.44182507 21.78602681 37.125 18.1875 C37.09401243 15.31082025 36.91742334 12.75227001 36 10 C39.04569711 12.37945087 39.92776783 13.55858118 40.5625 17.4375 C40 21 40 21 37.8125 24 C35 26 35 26 32.59375 25.85546875 C29.53358697 24.84616799 28.00504042 23.53683039 25.6875 21.3125 C20.61953602 16.61901612 15.32740254 12.56627863 9.609375 8.69921875 C9.01479492 8.29501709 8.42021484 7.89081543 7.80761719 7.47436523 C6.61482872 6.66644598 5.41761794 5.86501262 4.21582031 5.07055664 C2.77544857 4.09705082 1.38266496 3.05386049 0 2 C0 1.34 0 0.68 0 0 Z " fill="#293BCE" transform="translate(144,121)"/>
<path d="M0 0 C0.33 0 0.66 0 1 0 C1.16724111 4.96603713 1.32783783 9.93222678 1.48217773 14.89868164 C1.53567115 16.58949623 1.59100598 18.28025358 1.64819336 19.97094727 C1.72990041 22.39587047 1.80506395 24.82091994 1.87890625 27.24609375 C1.90594131 28.00651474 1.93297638 28.76693573 1.96083069 29.55039978 C2.01291299 31.36623334 2.01186585 33.18345843 2 35 C-0.11925604 37.11925604 -4.6196093 36.41831017 -7.5625 36.5625 C-8.36880859 36.60568359 -9.17511719 36.64886719 -10.00585938 36.69335938 C-12.00368805 36.79975262 -14.0018207 36.90040888 -16 37 C-16 36.34 -16 35.68 -16 35 C-16.66 34.67 -17.32 34.34 -18 34 C-17.835 33.484375 -17.67 32.96875 -17.5 32.4375 C-16.84951 29.26636124 -16.9379266 26.22781666 -17 23 C-16.34 22.67 -15.68 22.34 -15 22 C-15 25.96 -15 29.92 -15 34 C-10.05 34 -5.1 34 0 34 C0 22.78 0 11.56 0 0 Z " fill="#1926AA" transform="translate(309,164)"/>
<path d="M0 0 C0.33 0.66 0.66 1.32 1 2 C0.01538086 3.99609375 0.01538086 3.99609375 -1.53515625 6.4375 C-2.37916992 7.78134766 -2.37916992 7.78134766 -3.24023438 9.15234375 C-3.84158203 10.09207031 -4.44292969 11.03179687 -5.0625 12 C-6.22073718 13.83290059 -7.3782917 15.66623274 -8.53515625 17.5 C-9.11281738 18.40363281 -9.69047852 19.30726563 -10.28564453 20.23828125 C-11.44458892 22.10526771 -12.55951211 24.00019276 -13.63232422 25.91796875 C-14.14424316 26.83191406 -14.65616211 27.74585938 -15.18359375 28.6875 C-15.6314624 29.51636719 -16.07933105 30.34523437 -16.54077148 31.19921875 C-17.02231689 31.79347656 -17.5038623 32.38773438 -18 33 C-19.32 33 -20.64 33 -22 33 C-21.67 29.04 -21.34 25.08 -21 21 C-19 24 -19 24 -19 26 C-14.67106076 24.55702025 -13.41583912 21.24327401 -11.1875 17.5 C-10.29919954 16.04104364 -9.4098808 14.58270677 -8.51953125 13.125 C-8.08979004 12.41730469 -7.66004883 11.70960938 -7.21728516 10.98046875 C-4.92243142 7.2468439 -2.47213714 3.61776167 0 0 Z " fill="#2839C4" transform="translate(83,199)"/>
<path d="M0 0 C4.32417979 1.35130618 7.43044632 3.70021071 10.9375 6.46484375 C12.96892827 8.03816355 12.96892827 8.03816355 15.19921875 9.2734375 C19.28790615 11.79393936 23.01640054 14.75053454 26.8125 17.6875 C27.60076172 18.29400391 28.38902344 18.90050781 29.20117188 19.52539062 C31.13594406 21.01457891 33.0688112 22.5061696 35 24 C34.50351065 28.46840411 34.31012244 29.68987756 31 33 C31.33 30.03 31.66 27.06 32 24 C30.91332031 23.32904297 30.91332031 23.32904297 29.8046875 22.64453125 C28.83789062 22.03996094 27.87109375 21.43539062 26.875 20.8125 C25.92367187 20.22082031 24.97234375 19.62914062 23.9921875 19.01953125 C21.38551418 17.26019691 19.01404326 15.37980379 16.62451172 13.34057617 C12.91732655 10.28134056 8.9431515 7.55403001 5.0390625 4.75390625 C3.34265969 3.52536056 1.66898549 2.26554116 0 1 C0 0.67 0 0.34 0 0 Z " fill="#273ACF" transform="translate(135,123)"/>
<path d="M0 0 C0.33 0 0.66 0 1 0 C1.01030746 0.94547195 1.02061493 1.89094391 1.03123474 2.86506653 C1.12891514 11.76746372 1.23164417 20.66979019 1.33933926 29.57207203 C1.3945458 34.14901633 1.44796222 38.72596705 1.49731445 43.30297852 C1.5449914 47.71855456 1.5973355 52.13405268 1.65294075 56.54953575 C1.67334919 58.23564404 1.69206478 59.92177369 1.70907402 61.60791969 C1.73315145 63.96631221 1.76320145 66.3245576 1.79467773 68.68286133 C1.8004332 69.38273163 1.80618866 70.08260193 1.81211853 70.80368042 C1.85779654 73.80693883 2.04208292 76.12624875 3 79 C2.01 78.67 1.02 78.34 0 78 C0 52.26 0 26.52 0 0 Z " fill="#3043E2" transform="translate(379,122)"/>
<path d="M0 0 C1.58206057 0.00667536 3.16410534 0.0186375 4.74609375 0.03515625 C5.55240234 0.03966797 6.35871094 0.04417969 7.18945312 0.04882812 C9.18753131 0.06065107 11.18557158 0.07858711 13.18359375 0.09765625 C12.52359375 1.41765625 11.86359375 2.73765625 11.18359375 4.09765625 C11.18359375 3.43765625 11.18359375 2.77765625 11.18359375 2.09765625 C6.56359375 2.09765625 1.94359375 2.09765625 -2.81640625 2.09765625 C-3.08195312 3.17144531 -3.3475 4.24523437 -3.62109375 5.3515625 C-3.97780046 6.78777635 -4.33457491 8.22397337 -4.69140625 9.66015625 C-4.95244141 10.71686523 -4.95244141 10.71686523 -5.21875 11.79492188 C-6.3293544 16.25790623 -7.52841841 20.68252677 -8.81640625 25.09765625 C-9.14640625 25.09765625 -9.47640625 25.09765625 -9.81640625 25.09765625 C-9.40428853 19.2249787 -8.33124375 13.76884603 -6.81640625 8.09765625 C-6.63819336 7.42661865 -6.45998047 6.75558105 -6.27636719 6.06420898 C-4.64499783 0.1188587 -4.64499783 0.1188587 0 0 Z " fill="#2535CA" transform="translate(474.81640625,144.90234375)"/>
<path d="M0 0 C4.85245902 4.72131148 4.85245902 4.72131148 6.125 7.125 C9.13767401 10.13767401 12.58687541 9.67599365 16.6875 9.75 C17.88342773 9.79447266 17.88342773 9.79447266 19.10351562 9.83984375 C21.06846749 9.91044082 23.03423977 9.95749708 25 10 C23.68 8.35 22.36 6.7 21 5 C21.33 4.34 21.66 3.68 22 3 C23.03295436 4.09283577 24.05107835 5.19970579 25.0625 6.3125 C25.63097656 6.92738281 26.19945312 7.54226562 26.78515625 8.17578125 C27.18605469 8.77777344 27.58695312 9.37976563 28 10 C27.67 10.99 27.34 11.98 27 13 C10.07302075 13.27056111 10.07302075 13.27056111 5.21484375 10.29296875 C2.39205874 7.0626479 0.85101722 4.20780739 0 0 Z " fill="#2333C3" transform="translate(348,188)"/>
<path d="M0 0 C2.31 0 4.62 0 7 0 C7 10.89 7 21.78 7 33 C4.98092029 28.96184058 4.71030135 27.09731422 4.5859375 22.703125 C4.54726563 21.49785156 4.50859375 20.29257813 4.46875 19.05078125 C4.4378125 17.79652344 4.406875 16.54226562 4.375 15.25 C4.33632813 13.98027344 4.29765625 12.71054688 4.2578125 11.40234375 C4.16355778 8.2683743 4.07794834 5.13441051 4 2 C2.68 1.67 1.36 1.34 0 1 C0 0.67 0 0.34 0 0 Z " fill="#2739D3" transform="translate(490,157)"/>
<path d="M0 0 C0 4.62 0 9.24 0 14 C-0.33 14 -0.66 14 -1 14 C-1 10.04 -1 6.08 -1 2 C-5.95 2.66 -10.9 3.32 -16 4 C-15.979375 5.60875 -15.95875 7.2175 -15.9375 8.875 C-15.875 13.75 -15.875 13.75 -17 16 C-18.98 16 -20.96 16 -23 16 C-22.34 15.34 -21.68 14.68 -21 14 C-20.01 14 -19.02 14 -18 14 C-18.01160156 13.21753906 -18.02320313 12.43507812 -18.03515625 11.62890625 C-18.04417969 10.61699219 -18.05320312 9.60507813 -18.0625 8.5625 C-18.07410156 7.55316406 -18.08570313 6.54382813 -18.09765625 5.50390625 C-18 3 -18 3 -17 2 C-14.71591427 1.59984687 -12.42209129 1.25458315 -10.125 0.9375 C-8.24167969 0.67259766 -8.24167969 0.67259766 -6.3203125 0.40234375 C-3 0 -3 0 0 0 Z " fill="#2739C9" transform="translate(513,131)"/>
<path d="M0 0 C1.58206057 0.00667536 3.16410534 0.0186375 4.74609375 0.03515625 C5.55240234 0.03966797 6.35871094 0.04417969 7.18945312 0.04882812 C9.18753131 0.06065107 11.18557158 0.07858711 13.18359375 0.09765625 C12.85359375 0.75765625 12.52359375 1.41765625 12.18359375 2.09765625 C7.23359375 2.09765625 2.28359375 2.09765625 -2.81640625 2.09765625 C-2.81640625 12.65765625 -2.81640625 23.21765625 -2.81640625 34.09765625 C-3.14640625 34.09765625 -3.47640625 34.09765625 -3.81640625 34.09765625 C-3.98626632 30.28529163 -4.15170589 26.47274699 -4.31640625 22.66015625 C-4.36410156 21.59087891 -4.41179687 20.52160156 -4.4609375 19.41992188 C-4.72260598 13.3080939 -4.96822812 7.21481236 -4.81640625 1.09765625 C-3.81640625 0.09765625 -3.81640625 0.09765625 0 0 Z " fill="#2434C7" transform="translate(323.81640625,118.90234375)"/>
<path d="M0 0 C0.66 0.33 1.32 0.66 2 1 C1.55269531 1.68964844 1.10539062 2.37929687 0.64453125 3.08984375 C-2.77796711 8.40967596 -6.06001168 13.74743895 -9.0546875 19.3203125 C-10 21 -10 21 -11 22 C-7.64404172 21.40072174 -5.62198774 20.15377564 -3 18 C-2.34 18.33 -1.68 18.66 -1 19 C-2.26700723 19.9841125 -3.5387619 20.96211497 -4.8125 21.9375 C-5.52019531 22.48277344 -6.22789063 23.02804688 -6.95703125 23.58984375 C-9 25 -9 25 -12 26 C-13.17919922 24.32519531 -13.17919922 24.32519531 -14 22 C-12.94189453 19.52636719 -12.94189453 19.52636719 -11.1328125 16.796875 C-10.49472656 15.8171875 -9.85664062 14.8375 -9.19921875 13.828125 C-8.17248047 12.30445313 -8.17248047 12.30445313 -7.125 10.75 C-6.44824219 9.71875 -5.77148438 8.6875 -5.07421875 7.625 C-3.39687423 5.07354637 -1.70522804 2.53286745 0 0 Z " fill="#2839C2" transform="translate(84,210)"/>
<path d="M0 0 C6.6 0 13.2 0 20 0 C18.06369701 4.84075748 16.02119089 7.34676779 12.375 10.8125 C11.859375 11.31458984 11.34375 11.81667969 10.8125 12.33398438 C9.54840846 13.56296227 8.27511194 14.78246001 7 16 C7 13 7 13 8.93359375 10.80859375 C9.75988281 10.02613281 10.58617187 9.24367187 11.4375 8.4375 C14.63841178 5.53104307 14.63841178 5.53104307 17 2 C11.39 2 5.78 2 0 2 C0 1.34 0 0.68 0 0 Z " fill="#2537CF" transform="translate(354,145)"/>
<path d="M0 0 C0.86625 0.495 1.7325 0.99 2.625 1.5 C0.05662348 2.78418826 -0.8269142 2.28288662 -3.5625 1.5625 C-10.27021019 -0.01263322 -16.92659545 -0.20154212 -23.375 2.5 C-26.14652212 5.02056045 -26.14652212 5.02056045 -28.375 7.5 C-29.365 7.5 -30.355 7.5 -31.375 7.5 C-30.15864124 3.85092371 -29.30257323 3.6171341 -26 1.875 C-25.20851563 1.44960937 -24.41703125 1.02421875 -23.6015625 0.5859375 C-16.77271288 -2.74462424 -7.0165146 -3.06070184 0 0 Z " fill="#2737BF" transform="translate(568.375,145.5)"/>
<path d="M0 0 C1.03125 0.185625 2.0625 0.37125 3.125 0.5625 C3.125 0.8925 3.125 1.2225 3.125 1.5625 C1.145 1.5625 -0.835 1.5625 -2.875 1.5625 C-2.91625 2.2225 -2.9575 2.8825 -3 3.5625 C-4.07007323 7.2313225 -5.89790544 9.45295979 -8.2421875 12.42578125 C-10.70524583 15.64897002 -12.78710592 19.08883552 -14.875 22.5625 C-15.205 21.9025 -15.535 21.2425 -15.875 20.5625 C-14.19147725 16.73035678 -11.98755821 13.17184833 -9.875 9.5625 C-9.38257812 8.66273438 -8.89015625 7.76296875 -8.3828125 6.8359375 C-4.77515393 0.69316751 -4.77515393 0.69316751 0 0 Z " fill="#2739CE" transform="translate(112.875,169.4375)"/>
<path d="M0 0 C4.62 0 9.24 0 14 0 C14.09765625 9.27734375 14.09765625 9.27734375 14 12 C13 13 13 13 9.25 13.125 C6.05411684 13.09051205 3.11308275 12.77827069 0 12 C0 11.67 0 11.34 0 11 C3.96 11 7.92 11 12 11 C12 7.7 12 4.4 12 1 C8.04 1 4.08 1 0 1 C0 0.67 0 0.34 0 0 Z " fill="#2232C5" transform="translate(512,146)"/>
<path d="M0 0 C5.94 0 11.88 0 18 0 C17.67 0.99 17.34 1.98 17 3 C11.72 3 6.44 3 1 3 C1 3.66 1 4.32 1 5 C0.34 4.67 -0.32 4.34 -1 4 C-0.67 2.68 -0.34 1.36 0 0 Z " fill="#2537D0" transform="translate(228,121)"/>
<path d="M0 0 C2 3 2 3 2 5 C2.99 5.33 3.98 5.66 5 6 C4.67 7.65 4.34 9.3 4 11 C2.35 11.33 0.7 11.66 -1 12 C-0.67 8.04 -0.34 4.08 0 0 Z " fill="#3D50E4" transform="translate(62,220)"/>
<path d="M0 0 C5.94 0 11.88 0 18 0 C18 0.99 18 1.98 18 3 C12.39 3 6.78 3 1 3 C0.67 2.01 0.34 1.02 0 0 Z " fill="#273ACC" transform="translate(227,198)"/>
<path d="M0 0 C1.21065165 3.63195496 0.62784815 5.06531629 -0.4375 8.6875 C-0.72496094 9.68136719 -1.01242187 10.67523438 -1.30859375 11.69921875 C-1.53675781 12.45847656 -1.76492188 13.21773437 -2 14 C-2.99 13.67 -3.98 13.34 -5 13 C-5.33 10.36 -5.66 7.72 -6 5 C-4.515 5.99 -4.515 5.99 -3 7 C-2.01 4.69 -1.02 2.38 0 0 Z " fill="#2537D3" transform="translate(464,171)"/>
<path d="M0 0 C-0.54269531 0.25394531 -1.08539063 0.50789062 -1.64453125 0.76953125 C-2.71767578 1.28580078 -2.71767578 1.28580078 -3.8125 1.8125 C-4.52019531 2.14894531 -5.22789062 2.48539063 -5.95703125 2.83203125 C-8.01129035 4.00645471 -9.41616278 5.25628016 -11 7 C-11.99 6.67 -12.98 6.34 -14 6 C-14 4.02 -14 2.04 -14 0 C-13.34 0 -12.68 0 -12 0 C-11.67 1.32 -11.34 2.64 -11 4 C-10.21625 3.360625 -9.4325 2.72125 -8.625 2.0625 C-5.13641006 -0.67853495 -4.17359033 -1.2520771 0 0 Z " fill="#2639D4" transform="translate(285,146)"/>
<path d="M0 0 C0.66 0.66 1.32 1.32 2 2 C-0.11925604 4.11925604 -4.6196093 3.41831017 -7.5625 3.5625 C-8.36880859 3.60568359 -9.17511719 3.64886719 -10.00585938 3.69335938 C-12.00368805 3.79975262 -14.0018207 3.90040888 -16 4 C-16 3.34 -16 2.68 -16 2 C-13.37634644 1.61153193 -10.75209144 1.23875112 -8.125 0.875 C-7.37863281 0.76285156 -6.63226563 0.65070313 -5.86328125 0.53515625 C-3.91840803 0.27233554 -1.95834962 0.1283485 0 0 Z " fill="#2639CB" transform="translate(309,197)"/>
<path d="M0 0 C0.66 0.33 1.32 0.66 2 1 C0.73299277 1.9841125 -0.5387619 2.96211497 -1.8125 3.9375 C-2.87404297 4.75541016 -2.87404297 4.75541016 -3.95703125 5.58984375 C-6 7 -6 7 -9 8 C-9.66 6.68 -10.32 5.36 -11 4 C-9.6696875 4.12375 -9.6696875 4.12375 -8.3125 4.25 C-4.30991841 3.94791837 -2.87164566 2.70272533 0 0 Z " fill="#3B4BC6" transform="translate(81,228)"/>
<path d="M0 0 C0.33 0 0.66 0 1 0 C1.05429959 1.74965358 1.09292823 3.49979787 1.125 5.25 C1.14820312 6.22453125 1.17140625 7.1990625 1.1953125 8.203125 C0.99862781 11.0196498 0.44568916 12.60949036 -1 15 C-2.51708428 4.44191344 -2.51708428 4.44191344 0 0 Z " fill="#2A3BC4" transform="translate(66,194)"/>
<path d="M0 0 C3.125 -0.1875 3.125 -0.1875 6 0 C3.94766315 2.2477975 2.99332739 3.0022242 0 4 C-0.73323796 6.01508358 -0.73323796 6.01508358 -1 8 C-1.625 5.6875 -1.625 5.6875 -2 3 C-1.34 2.01 -0.68 1.02 0 0 Z " fill="#354EF7" transform="translate(118,94)"/>
<path d="M0 0 C0.33 0 0.66 0 1 0 C1.144375 0.763125 1.28875 1.52625 1.4375 2.3125 C1.9632594 5.08172908 1.9632594 5.08172908 3 8 C1.68 8 0.36 8 -1 8 C-1.125 2.25 -1.125 2.25 0 0 Z " fill="#3D4EC7" transform="translate(62,224)"/>
<path d="M0 0 C0 0.66 0 1.32 0 2 C-2.5614657 4.29648649 -3.47967572 5 -7 5 C-5.64703851 0.94111554 -4.27479763 0 0 0 Z " fill="#293BD6" transform="translate(544,148)"/>
<path d="M0 0 C1 4 1 4 1 4 Z " fill="#465BE8" transform="translate(64,149)"/>
<path d="M0 0 C0.33 0.66 0.66 1.32 1 2 C0.34 1.67 -0.32 1.34 -1 1 C-0.67 0.67 -0.34 0.34 0 0 Z " fill="#364BDA" transform="translate(506,129)"/>
<path d="M0 0 C3 1 3 1 3 1 Z " fill="#4658D6" transform="translate(187,77)"/>
<path d="M0 0 C2 1 2 1 2 1 Z " fill="#3247D5" transform="translate(574,200)"/>
<path d="" fill="#374CEA" transform="translate(0,0)"/>
<path d="" fill="#374CF1" transform="translate(0,0)"/>
<path d="" fill="#344DEF" transform="translate(0,0)"/>
<path d="M0 0 C2 1 2 1 2 1 Z " fill="#3B52F6" transform="translate(107,165)"/>
<path d="M0 0 C2 1 2 1 2 1 Z " fill="#334CF2" transform="translate(548,164)"/>
<path d="M0 0 C2 1 2 1 2 1 Z " fill="#384BEE" transform="translate(514,160)"/>
<path d="M0 0 C2 1 2 1 2 1 Z " fill="#3248E9" transform="translate(286,160)"/>
<path d="" fill="#3A51F3" transform="translate(0,0)"/>
<path d="M0 0 C2 1 2 1 2 1 Z " fill="#3548E1" transform="translate(542,145)"/>
<path d="" fill="#3B52F4" transform="translate(0,0)"/>
<path d="M0 0 C2 1 2 1 2 1 Z " fill="#455DEE" transform="translate(92,121)"/>
<path d="M0 0 C2 1 2 1 2 1 Z " fill="#3D56F7" transform="translate(130,117)"/>
<path d="" fill="#3B52F1" transform="translate(0,0)"/>
<path d="" fill="#3C52F1" transform="translate(0,0)"/>
<path d="" fill="#3D424D" transform="translate(0,0)"/>
<path d="" fill="#434554" transform="translate(0,0)"/>
<path d="" fill="#434554" transform="translate(0,0)"/>
<path d="" fill="#424357" transform="translate(0,0)"/>
<path d="" fill="#414356" transform="translate(0,0)"/>
<path d="" fill="#41445A" transform="translate(0,0)"/>
<path d="" fill="#40435C" transform="translate(0,0)"/>
<path d="" fill="#40435B" transform="translate(0,0)"/>
<path d="" fill="#3C405C" transform="translate(0,0)"/>
<path d="" fill="#40445F" transform="translate(0,0)"/>
<path d="" fill="#3A3F5D" transform="translate(0,0)"/>
<path d="" fill="#393C56" transform="translate(0,0)"/>
<path d="" fill="#3F4465" transform="translate(0,0)"/>
<path d="" fill="#383B4A" transform="translate(0,0)"/>
<path d="" fill="#3F446A" transform="translate(0,0)"/>
<path d="" fill="#787E96" transform="translate(0,0)"/>
<path d="" fill="#39394C" transform="translate(0,0)"/>
<path d="" fill="#3E4570" transform="translate(0,0)"/>
<path d="" fill="#484F71" transform="translate(0,0)"/>
<path d="" fill="#3F486F" transform="translate(0,0)"/>
<path d="" fill="#3E4477" transform="translate(0,0)"/>
<path d="" fill="#3D467F" transform="translate(0,0)"/>
<path d="" fill="#7781A3" transform="translate(0,0)"/>
<path d="" fill="#353B54" transform="translate(0,0)"/>
<path d="" fill="#3D4687" transform="translate(0,0)"/>
<path d="" fill="#3B488F" transform="translate(0,0)"/>
<path d="" fill="#33395A" transform="translate(0,0)"/>
<path d="" fill="#394080" transform="translate(0,0)"/>
<path d="" fill="#384382" transform="translate(0,0)"/>
<path d="" fill="#3E4799" transform="translate(0,0)"/>
<path d="" fill="#3E4AA3" transform="translate(0,0)"/>
<path d="" fill="#3E4BAE" transform="translate(0,0)"/>
<path d="" fill="#5B69D2" transform="translate(0,0)"/>
<path d="" fill="#5D6CD6" transform="translate(0,0)"/>
<path d="" fill="#3049DA" transform="translate(0,0)"/>
<path d="" fill="#3D4ECA" transform="translate(0,0)"/>
<path d="" fill="#343E76" transform="translate(0,0)"/>
<path d="" fill="#3D52F0" transform="translate(0,0)"/>
<path d="" fill="#344AE6" transform="translate(0,0)"/>
<path d="" fill="#4256EC" transform="translate(0,0)"/>
<path d="" fill="#435CED" transform="translate(0,0)"/>
<path d="" fill="#394CE0" transform="translate(0,0)"/>
<path d="" fill="#364BE9" transform="translate(0,0)"/>
<path d="" fill="#3548E3" transform="translate(0,0)"/>
<path d="" fill="#354AED" transform="translate(0,0)"/>
<path d="" fill="#3449E6" transform="translate(0,0)"/>
<path d="" fill="#3849E3" transform="translate(0,0)"/>
<path d="" fill="#394BE8" transform="translate(0,0)"/>
<path d="" fill="#3A4BE6" transform="translate(0,0)"/>
<path d="" fill="#394DEB" transform="translate(0,0)"/>
<path d="" fill="#3C56EF" transform="translate(0,0)"/>
<path d="" fill="#435AEB" transform="translate(0,0)"/>
<path d="" fill="#4559EF" transform="translate(0,0)"/>
<path d="" fill="#354AEE" transform="translate(0,0)"/>
<path d="" fill="#374CED" transform="translate(0,0)"/>
<path d="" fill="#364184" transform="translate(0,0)"/>
<path d="" fill="#344DEE" transform="translate(0,0)"/>
<path d="" fill="#374FEF" transform="translate(0,0)"/>
<path d="" fill="#3B4FF0" transform="translate(0,0)"/>
<path d="" fill="#4457ED" transform="translate(0,0)"/>
<path d="" fill="#354AEB" transform="translate(0,0)"/>
<path d="" fill="#3850F1" transform="translate(0,0)"/>
<path d="" fill="#374EF6" transform="translate(0,0)"/>
<path d="" fill="#364BF2" transform="translate(0,0)"/>
<path d="" fill="#394EF2" transform="translate(0,0)"/>
<path d="" fill="#3E51F8" transform="translate(0,0)"/>
<path d="" fill="#374BF0" transform="translate(0,0)"/>
<path d="" fill="#354BF3" transform="translate(0,0)"/>
<path d="" fill="#334AF2" transform="translate(0,0)"/>
<path d="" fill="#3D52F7" transform="translate(0,0)"/>
<path d="" fill="#384DF3" transform="translate(0,0)"/>
<path d="" fill="#374BF1" transform="translate(0,0)"/>
<path d="" fill="#364BF3" transform="translate(0,0)"/>
<path d="" fill="#3A4FF4" transform="translate(0,0)"/>
<path d="" fill="#3A50F5" transform="translate(0,0)"/>
<path d="" fill="#3348EE" transform="translate(0,0)"/>
<path d="" fill="#364CF4" transform="translate(0,0)"/>
<path d="" fill="#3C51F8" transform="translate(0,0)"/>
<path d="" fill="#3C53F7" transform="translate(0,0)"/>
<path d="" fill="#324AF1" transform="translate(0,0)"/>
<path d="" fill="#344CF8" transform="translate(0,0)"/>
<path d="" fill="#3A52FB" transform="translate(0,0)"/>
<path d="" fill="#3B52F7" transform="translate(0,0)"/>
<path d="" fill="#354DF3" transform="translate(0,0)"/>
<path d="" fill="#4558EB" transform="translate(0,0)"/>
<path d="" fill="#374CF5" transform="translate(0,0)"/>
<path d="" fill="#3449F3" transform="translate(0,0)"/>
<path d="" fill="#3847EC" transform="translate(0,0)"/>
<path d="" fill="#324AF3" transform="translate(0,0)"/>
<path d="" fill="#364DF5" transform="translate(0,0)"/>
<path d="" fill="#344BEE" transform="translate(0,0)"/>
<path d="" fill="#3649F3" transform="translate(0,0)"/>
<path d="" fill="#344BF4" transform="translate(0,0)"/>
<path d="" fill="#3851F3" transform="translate(0,0)"/>
<path d="" fill="#3950F0" transform="translate(0,0)"/>
<path d="" fill="#445DEB" transform="translate(0,0)"/>
<path d="" fill="#3B55F6" transform="translate(0,0)"/>
<path d="" fill="#3B53F5" transform="translate(0,0)"/>
<path d="" fill="#3C55F7" transform="translate(0,0)"/>
<path d="" fill="#485DE8" transform="translate(0,0)"/>
<path d="" fill="#3348F4" transform="translate(0,0)"/>
<path d="" fill="#394DEF" transform="translate(0,0)"/>
<path d="" fill="#354CF3" transform="translate(0,0)"/>
<path d="" fill="#324AEB" transform="translate(0,0)"/>
<path d="" fill="#384CF0" transform="translate(0,0)"/>
<path d="" fill="#354EEE" transform="translate(0,0)"/>
<path d="" fill="#354AEE" transform="translate(0,0)"/>
<path d="" fill="#334CE9" transform="translate(0,0)"/>
<path d="" fill="#344CEB" transform="translate(0,0)"/>
<path d="" fill="#3950F5" transform="translate(0,0)"/>
<path d="" fill="#394FEC" transform="translate(0,0)"/>
<path d="" fill="#374BD8" transform="translate(0,0)"/>
<path d="" fill="#384EF0" transform="translate(0,0)"/>
<path d="" fill="#3B4FED" transform="translate(0,0)"/>
<path d="" fill="#3950F5" transform="translate(0,0)"/>
<path d="" fill="#3950F4" transform="translate(0,0)"/>
<path d="" fill="#3B52F7" transform="translate(0,0)"/>
<path d="" fill="#4A60E7" transform="translate(0,0)"/>
<path d="" fill="#3E54F6" transform="translate(0,0)"/>
<path d="" fill="#374BDF" transform="translate(0,0)"/>
<path d="" fill="#3A52F6" transform="translate(0,0)"/>
<path d="" fill="#3850F5" transform="translate(0,0)"/>
<path d="" fill="#3D53F3" transform="translate(0,0)"/>
<path d="" fill="#3750F5" transform="translate(0,0)"/>
<path d="" fill="#384CE1" transform="translate(0,0)"/>
<path d="" fill="#3652F6" transform="translate(0,0)"/>
<path d="" fill="#394CE0" transform="translate(0,0)"/>
<path d="" fill="#3753F7" transform="translate(0,0)"/>
<path d="" fill="#3950F3" transform="translate(0,0)"/>
<path d="" fill="#3A4EDF" transform="translate(0,0)"/>
<path d="" fill="#3A4FDF" transform="translate(0,0)"/>
<path d="" fill="#3B56F3" transform="translate(0,0)"/>
<path d="" fill="#435BEC" transform="translate(0,0)"/>
<path d="" fill="#3C53F1" transform="translate(0,0)"/>
<path d="" fill="#4156EF" transform="translate(0,0)"/>
<path d="" fill="#39426A" transform="translate(0,0)"/>
<path d="" fill="#3D56EC" transform="translate(0,0)"/>
<path d="" fill="#3E52E6" transform="translate(0,0)"/>
<path d="" fill="#4553AB" transform="translate(0,0)"/>
<path d="" fill="#4156E8" transform="translate(0,0)"/>
<path d="" fill="#4752A1" transform="translate(0,0)"/>
<path d="" fill="#475399" transform="translate(0,0)"/>
<path d="" fill="#495BD4" transform="translate(0,0)"/>
<path d="" fill="#3E4674" transform="translate(0,0)"/>
<path d="" fill="#475191" transform="translate(0,0)"/>
<path d="" fill="#485189" transform="translate(0,0)"/>
<path d="" fill="#3C4054" transform="translate(0,0)"/>
<path d="" fill="#494F82" transform="translate(0,0)"/>
<path d="" fill="#49507C" transform="translate(0,0)"/>
<path d="" fill="#475079" transform="translate(0,0)"/>
<path d="" fill="#474E77" transform="translate(0,0)"/>
<path d="" fill="#4B5077" transform="translate(0,0)"/>
<path d="" fill="#4A5072" transform="translate(0,0)"/>
<path d="" fill="#44485E" transform="translate(0,0)"/>
<path d="" fill="#4C506E" transform="translate(0,0)"/>
<path d="" fill="#4D506A" transform="translate(0,0)"/>
<path d="" fill="#414149" transform="translate(0,0)"/>
<path d="" fill="#4E5068" transform="translate(0,0)"/>
</svg>
