<?xml version="1.0" encoding="UTF-8"?>
<svg version="1.1" xmlns="http://www.w3.org/2000/svg" width="235" height="235">
<path d="M0 0 C4.7948774 2.68488671 9.4345562 5.50515154 14 8.5625 C14.64517578 8.99377197 15.29035156 9.42504395 15.95507812 9.86938477 C22.47418727 14.26314419 28.79956825 18.90592248 35.10742188 23.59570312 C38.31163452 25.97323552 41.53157764 28.32926151 44.75 30.6875 C45.37108643 31.14382812 45.99217285 31.60015625 46.63208008 32.0703125 C51.30398758 35.50096377 56.00699422 38.88669481 60.73046875 42.24609375 C65.19702699 45.69787456 65.19702699 45.69787456 67 48 C66.56597217 51.66317937 65.36419209 54.88802237 63.99609375 58.296875 C63.5889917 59.32675537 63.18188965 60.35663574 62.76245117 61.41772461 C62.32521729 62.51737549 61.8879834 63.61702637 61.4375 64.75 C57.36226366 75.08277163 53.7931519 85.47257157 50.77709961 96.16503906 C50.33636108 97.64375488 50.33636108 97.64375488 49.88671875 99.15234375 C49.64139404 100.01851318 49.39606934 100.88468262 49.14331055 101.77709961 C46.77292254 106.38576558 41.74224967 107.5854429 37.08984375 109.1640625 C35.94443115 109.55948242 34.79901855 109.95490234 33.61889648 110.36230469 C32.40403564 110.77899414 31.1891748 111.19568359 29.9375 111.625 C5.84938524 120.02118115 -18.19109058 130.57991635 -38 147 C-39.17712442 147.92995276 -40.36338659 148.84857832 -41.5625 149.75 C-42.12066406 150.17796875 -42.67882813 150.6059375 -43.25390625 151.046875 C-45 152 -45 152 -49 152 C-48.33265183 148.62127529 -47.03659749 146.02203612 -45.33984375 143.03515625 C-44.79739014 142.07657715 -44.25493652 141.11799805 -43.69604492 140.13037109 C-43.1157251 139.11797363 -42.53540527 138.10557617 -41.9375 137.0625 C-41.34622314 136.02432129 -40.75494629 134.98614258 -40.14575195 133.91650391 C-35.91149232 126.51277044 -31.54606473 119.21675503 -27 112 C-22.17293282 104.22135034 -17.4126553 96.40338458 -12.6875 88.5625 C-11.9135791 87.28330688 -11.9135791 87.28330688 -11.12402344 85.97827148 C-8.56685767 81.72402411 -6.1352481 77.48183475 -4 73 C-1.36 73 1.28 73 4 73 C4.33 72.34 4.66 71.68 5 71 C5.804375 70.566875 6.60875 70.13375 7.4375 69.6875 C10.533874 67.64842444 11.18405249 66.59016905 12 63 C12 58.43538733 11.47991943 56.56390533 8.5 53.0625 C4.57144728 50.18471681 0.67124378 50.37946577 -4 51 C-6.9400759 51.35627661 -6.9400759 51.35627661 -9 53 C-11.14516458 57.97288152 -11.13141382 61.75435411 -10 67 C-9.67 67.66 -9.34 68.32 -9 69 C-9.70581055 70.74560547 -9.70581055 70.74560547 -10.88671875 72.8671875 C-11.32483887 73.66084717 -11.76295898 74.45450684 -12.21435547 75.2722168 C-12.70049316 76.13113525 -13.18663086 76.99005371 -13.6875 77.875 C-14.18137207 78.76034424 -14.67524414 79.64568848 -15.18408203 80.55786133 C-19.26706948 87.82527113 -23.5157582 94.9910191 -27.8503418 102.11083984 C-30.16823642 105.91951966 -32.43115097 109.74038346 -34.578125 113.6484375 C-37.33960527 118.67314762 -40.42166077 123.45549083 -43.5234375 128.27734375 C-44.01070312 129.17582031 -44.49796875 130.07429687 -45 131 C-44.67 131.66 -44.34 132.32 -44 133 C-44.99 133 -45.98 133 -47 133 C-47.2475 133.70125 -47.495 134.4025 -47.75 135.125 C-49.19944956 138.458734 -50.7004562 141.17484619 -53 144 C-55.63671875 144.16796875 -55.63671875 144.16796875 -58 144 C-57.70914714 141.49990304 -57.41738337 138.99991815 -57.125 136.5 C-56.99073608 135.34781982 -56.99073608 135.34781982 -56.85375977 134.17236328 C-56.4101712 130.39043181 -55.95547848 126.6110624 -55.45703125 122.8359375 C-55.28558594 121.52882813 -55.11414062 120.22171875 -54.9375 118.875 C-54.78152344 117.71742188 -54.62554687 116.55984375 -54.46484375 115.3671875 C-54.30263366 113.91224965 -54.14875731 112.45637479 -54 111 C-53.84688354 109.57022827 -53.84688354 109.57022827 -53.69067383 108.11157227 C-52.96132028 99.77890089 -53.08240637 91.64248708 -53.39453125 83.29296875 C-53.49862887 79.78664987 -53.59707571 76.28021668 -53.69360352 72.77368164 C-53.7731935 70.37307135 -53.87593091 67.97312226 -54.0012207 65.57446289 C-54.98383826 46.0324734 -54.98383826 46.0324734 -51.66247559 40.95547485 C-47.98060159 37.22657553 -43.7068946 35.18173093 -39 33 C-37.34035933 31.81802347 -35.70508371 30.59889464 -34.125 29.3125 C-33.43535156 28.77109375 -32.74570313 28.2296875 -32.03515625 27.671875 C-29.14972507 25.3015016 -26.37783564 22.81194993 -23.62890625 20.28515625 C-22 19 -22 19 -20 19 C-20 18.34 -20 17.68 -20 17 C-18.20703125 15.44921875 -18.20703125 15.44921875 -15.8125 13.6875 C-12.25106902 10.99973256 -9.11641937 8.20064692 -6 5 C-4.03168252 3.29067166 -2.02226602 1.64603048 0 0 Z " fill="#2A45FC" transform="translate(98,54)"/>
<path d="M0 0 C3.02510607 1.33539773 5.87858059 2.92634217 8.75 4.5625 C10.24167933 5.4026852 11.73635766 6.23757427 13.234375 7.06640625 C13.88631836 7.43709229 14.53826172 7.80777832 15.20996094 8.18969727 C17.12802069 9.20619444 17.12802069 9.20619444 20 9 C20 9.66 20 10.32 20 11 C20.825 11.2475 21.65 11.495 22.5 11.75 C25.82367814 12.93702791 28.71319265 14.37366465 31.77734375 16.09765625 C34.79267161 17.32180517 37.78150244 17.62431497 41 18 C40.98839844 16.71222656 40.97679687 15.42445312 40.96484375 14.09765625 C40.9554673 12.41927228 40.94636695 10.74088674 40.9375 9.0625 C40.92912109 8.21236328 40.92074219 7.36222656 40.91210938 6.48632812 C40.90888672 5.67744141 40.90566406 4.86855469 40.90234375 4.03515625 C40.89710693 3.2862915 40.89187012 2.53742676 40.88647461 1.76586914 C41 0 41 0 42 -1 C43.78071246 -1.08726223 45.5648314 -1.10699041 47.34765625 -1.09765625 C48.42724609 -1.09443359 49.50683594 -1.09121094 50.61914062 -1.08789062 C52.32360352 -1.07532227 52.32360352 -1.07532227 54.0625 -1.0625 C55.77276367 -1.05573242 55.77276367 -1.05573242 57.51757812 -1.04882812 C60.34510351 -1.03699747 63.1725264 -1.0205141 66 -1 C67.50162548 2.00325096 67.14368999 5.08556242 67.125 8.375 C67.12886719 9.04789063 67.13273437 9.72078125 67.13671875 10.4140625 C67.13008529 13.78385822 66.89744875 16.76045063 66 20 C66.6612085 19.99476318 67.32241699 19.98952637 68.00366211 19.98413086 C70.98159851 19.96342344 73.95951982 19.95035988 76.9375 19.9375 C77.97841797 19.92912109 79.01933594 19.92074219 80.09179688 19.91210938 C81.08115234 19.90888672 82.07050781 19.90566406 83.08984375 19.90234375 C84.46450806 19.89448853 84.46450806 19.89448853 85.86694336 19.88647461 C88 20 88 20 89 21 C89.08726223 22.78071246 89.10699041 24.5648314 89.09765625 26.34765625 C89.09282227 27.96704102 89.09282227 27.96704102 89.08789062 29.61914062 C89.07532227 31.32360352 89.07532227 31.32360352 89.0625 33.0625 C89.05798828 34.20267578 89.05347656 35.34285156 89.04882812 36.51757812 C89.0369976 39.34507418 89.0190615 42.17254345 89 45 C82.07 45 75.14 45 68 45 C68.99 47.64 69.98 50.28 71 53 C70.9609375 55.64453125 70.9609375 55.64453125 70.375 57.8125 C70.10816406 58.90498047 70.10816406 58.90498047 69.8359375 60.01953125 C68.850779 62.35352826 68.1046737 63.56672674 66 65 C61.88592605 64.82663546 59.63641466 63.23543013 56.5625 60.625 C55.68851562 59.90054688 54.81453125 59.17609375 53.9140625 58.4296875 C52.95242187 57.62789062 51.99078125 56.82609375 51 56 C40.98698426 47.86481855 30.5964025 40.35286339 20 33 C18.70029977 32.09276453 17.40081179 31.1852249 16.1015625 30.27734375 C10.71676285 26.36472872 10.71676285 26.36472872 5 23 C5 22.34 5 21.68 5 21 C4.29359375 20.7421875 3.5871875 20.484375 2.859375 20.21875 C-0.23221926 18.9010213 -2.91772581 17.30653164 -5.75 15.5 C-6.71421875 14.8915625 -7.6784375 14.283125 -8.671875 13.65625 C-11 12 -11 12 -12 10 C-12.375 6.625 -12.375 6.625 -12 3 C-8.2114196 -1.59221867 -5.53980235 -1.26031904 0 0 Z M44 21 C44.33 27.93 44.66 34.86 45 42 C51.6 42 58.2 42 65 42 C65 35.07 65 28.14 65 21 C58.07 21 51.14 21 44 21 Z " fill="#2C46FA" transform="translate(110,36)"/>
<path d="M0 0 C7.59 0 15.18 0 23 0 C23 7.92 23 15.84 23 24 C16.07 24 9.14 24 2 24 C2.99 26.64 3.98 29.28 5 32 C4.9609375 34.64453125 4.9609375 34.64453125 4.375 36.8125 C4.19710937 37.54082031 4.01921875 38.26914063 3.8359375 39.01953125 C2.850779 41.35352826 2.1046737 42.56672674 0 44 C-4.11407395 43.82663546 -6.36358534 42.23543013 -9.4375 39.625 C-10.29988281 38.90828125 -11.16226563 38.1915625 -12.05078125 37.453125 C-13.51064453 36.23882812 -13.51064453 36.23882812 -15 35 C-17.36298111 33.10961511 -19.74288384 31.24118714 -22.125 29.375 C-23.02134155 28.67080933 -23.02134155 28.67080933 -23.93579102 27.95239258 C-28.24535439 24.57272808 -32.59739598 21.25792698 -37 18 C-33.3727374 18 -32.34764651 18.92885784 -29.4375 21 C-26.49058315 23.31658659 -26.49058315 23.31658659 -23 24 C-23 16.41 -23 8.82 -23 1 C-22.34 1.33 -21.68 1.66 -21 2 C-21 8.27 -21 14.54 -21 21 C-17.968125 20.79375 -14.93625 20.5875 -11.8125 20.375 C-0.66851885 19.73518391 9.91699998 20.71829251 21 22 C21 15.07 21 8.14 21 1 C14.07 1 7.14 1 0 1 C0 0.67 0 0.34 0 0 Z " fill="#2C45F1" transform="translate(176,57)"/>
<path d="M0 0 C1 1 1 1 1.11352539 2.85766602 C1.10828857 3.64842529 1.10305176 4.43918457 1.09765625 5.25390625 C1.09443359 6.10791016 1.09121094 6.96191406 1.08789062 7.84179688 C1.07951172 8.73962891 1.07113281 9.63746094 1.0625 10.5625 C1.05798828 11.46419922 1.05347656 12.36589844 1.04882812 13.29492188 C1.03700225 15.53001314 1.0205222 17.76497437 1 20 C-3.06639825 21.1366726 -6.99270758 21.14737223 -11.1875 21.125 C-11.92419922 21.12886719 -12.66089844 21.13273437 -13.41992188 21.13671875 C-18.87331509 21.12668491 -18.87331509 21.12668491 -20 20 C-20.08651611 18.58429877 -20.10704904 17.164405 -20.09765625 15.74609375 C-20.09443359 14.89208984 -20.09121094 14.03808594 -20.08789062 13.15820312 C-20.07951172 12.26037109 -20.07113281 11.36253906 -20.0625 10.4375 C-20.05798828 9.53580078 -20.05347656 8.63410156 -20.04882812 7.70507812 C-20.03700225 5.46998686 -20.0205222 3.23502563 -20 1 C-6.61228407 -0.24952015 -6.61228407 -0.24952015 0 0 Z " fill="#2D48FD" transform="translate(199,17)"/>
<path d="M0 0 C6.93 0 13.86 0 21 0 C21 5.94 21 11.88 21 18 C14.07 18 7.14 18 0 18 C0 12.06 0 6.12 0 0 Z " fill="#2D48FE" transform="translate(154,37)"/>
<path d="M0 0 C4.7948774 2.68488671 9.4345562 5.50515154 14 8.5625 C14.64517578 8.99377197 15.29035156 9.42504395 15.95507812 9.86938477 C22.47418727 14.26314419 28.79956825 18.90592248 35.10742188 23.59570312 C38.31163397 25.97323511 41.53152585 28.329333 44.75 30.6875 C45.37036133 31.14310303 45.99072266 31.59870605 46.62988281 32.06811523 C49.505058 34.17868927 52.38494175 36.28177992 55.28125 38.36328125 C56.75078125 39.42095703 56.75078125 39.42095703 58.25 40.5 C59.52617187 41.41265625 59.52617187 41.41265625 60.828125 42.34375 C62.74196456 43.80322477 64.45783513 45.15245595 66 47 C65.6875 49.1875 65.6875 49.1875 65 51 C64.64164062 50.27941406 64.28328125 49.55882812 63.9140625 48.81640625 C61.57589397 45.37595827 58.73488469 43.28478107 55.375 40.9375 C54.71765869 40.46707275 54.06031738 39.99664551 53.38305664 39.51196289 C51.26217952 37.99812039 49.13182501 36.49837667 47 35 C45.57389249 33.99004387 44.14811079 32.97962752 42.72265625 31.96875 C39.86456421 29.94494709 37.00218741 27.92740548 34.13671875 25.9140625 C30.90915388 23.64450539 27.69459194 21.35771597 24.48803711 19.05859375 C22.22780767 17.43811179 19.96365367 15.82318842 17.69824219 14.20996094 C16.53131789 13.37855254 15.36535357 12.54579564 14.20019531 11.71191406 C12.42953493 10.44742849 10.653103 9.19149077 8.875 7.9375 C7.84117188 7.20402344 6.80734375 6.47054687 5.7421875 5.71484375 C3.27541533 4.17223266 1.83925833 3.32667994 -1 3 C-3.31512708 5.01580986 -5.3124997 6.99778521 -7.375 9.25 C-13.60852845 15.77758606 -20.186869 21.31876406 -27.37451172 26.75048828 C-29.888788 28.68321072 -32.31487395 30.71901583 -34.75 32.75 C-39.05225375 36.29904018 -43.49356428 39.54766525 -48.1015625 42.6875 C-49.92188192 43.86204282 -49.92188192 43.86204282 -51 45 C-51.16199672 46.8653231 -51.16199672 46.8653231 -51.125 49.0625 C-51.12757812 49.79597656 -51.13015625 50.52945313 -51.1328125 51.28515625 C-51.03560068 54.13485807 -51.03560068 54.13485807 -50.50390625 57.46875 C-49.72653531 63.43764928 -49.80892094 69.42747025 -49.8125 75.4375 C-49.81258057 76.70343994 -49.81266113 77.96937988 -49.81274414 79.27368164 C-49.89685432 93.46705344 -50.37309254 108.01349273 -53 122 C-53.33 122 -53.66 122 -54 122 C-54.10826119 116.21404104 -53.97807999 110.53717006 -53.4453125 104.7734375 C-52.93554063 97.5752822 -53.12079202 90.50001293 -53.39453125 83.29296875 C-53.49885621 79.78665532 -53.59707568 76.28021789 -53.69360352 72.77368164 C-53.7731935 70.37307135 -53.87593091 67.97312226 -54.0012207 65.57446289 C-54.98383826 46.0324734 -54.98383826 46.0324734 -51.66247559 40.95547485 C-47.98060159 37.22657553 -43.7068946 35.18173093 -39 33 C-37.34035933 31.81802347 -35.70508371 30.59889464 -34.125 29.3125 C-33.43535156 28.77109375 -32.74570313 28.2296875 -32.03515625 27.671875 C-29.14972507 25.3015016 -26.37783564 22.81194993 -23.62890625 20.28515625 C-22 19 -22 19 -20 19 C-20 18.34 -20 17.68 -20 17 C-18.20703125 15.44921875 -18.20703125 15.44921875 -15.8125 13.6875 C-12.25106902 10.99973256 -9.11641937 8.20064692 -6 5 C-4.03168252 3.29067166 -2.02226602 1.64603048 0 0 Z " fill="#2537C6" transform="translate(98,54)"/>
<path d="M0 0 C1.00023193 0.00523682 2.00046387 0.01047363 3.03100586 0.01586914 C4.1105957 0.0190918 5.19018555 0.02231445 6.30249023 0.02563477 C8.00695312 0.03820313 8.00695312 0.03820313 9.74584961 0.05102539 C11.45611328 0.05779297 11.45611328 0.05779297 13.20092773 0.06469727 C16.02845312 0.07652792 18.85587601 0.09301129 21.68334961 0.11352539 C23.17703825 3.10090267 22.8677296 6.15313446 22.87084961 9.42602539 C22.8850293 10.7421582 22.89920898 12.05829102 22.91381836 13.41430664 C22.69743591 16.88742835 22.04553072 18.97784319 20.68334961 22.11352539 C2.7460056 22.48673643 -12.83718096 22.41427123 -28.31665039 12.11352539 C-28.64665039 11.45352539 -28.97665039 10.79352539 -29.31665039 10.11352539 C-27.66665039 10.11352539 -26.01665039 10.11352539 -24.31665039 10.11352539 C-24.31665039 10.77352539 -24.31665039 11.43352539 -24.31665039 12.11352539 C-23.07915039 12.48477539 -23.07915039 12.48477539 -21.81665039 12.86352539 C-18.49297226 14.0505533 -15.60345775 15.48719004 -12.53930664 17.21118164 C-9.52397878 18.43533056 -6.53514795 18.73784036 -3.31665039 19.11352539 C-3.32825195 17.82575195 -3.33985352 16.53797852 -3.35180664 15.21118164 C-3.36118309 13.53279767 -3.37028344 11.85441213 -3.37915039 10.17602539 C-3.3875293 9.32588867 -3.3959082 8.47575195 -3.40454102 7.59985352 C-3.409375 6.38652344 -3.409375 6.38652344 -3.41430664 5.14868164 C-3.42216187 4.02538452 -3.42216187 4.02538452 -3.43017578 2.87939453 C-3.25339971 0.12967128 -2.74402871 0.13446868 0 0 Z M-0.31665039 2.11352539 C-0.31665039 8.05352539 -0.31665039 13.99352539 -0.31665039 20.11352539 C6.61334961 20.11352539 13.54334961 20.11352539 20.68334961 20.11352539 C20.68334961 14.17352539 20.68334961 8.23352539 20.68334961 2.11352539 C13.75334961 2.11352539 6.82334961 2.11352539 -0.31665039 2.11352539 Z " fill="#2537C1" transform="translate(154.316650390625,34.886474609375)"/>
<path d="M0 0 C0.66 0 1.32 0 2 0 C0.63991235 3.72023976 -1.06444205 6.82697336 -3.25 10.125 C-6.28075507 14.800302 -9.01645253 19.56174239 -11.64453125 24.47265625 C-13.3678224 27.68582448 -15.17603935 30.84314504 -17 34 C-15.26847042 32.92044741 -13.53988316 31.83617488 -11.8125 30.75 C-10.84957031 30.14671875 -9.88664062 29.5434375 -8.89453125 28.921875 C-6.02773844 27.0840946 -6.02773844 27.0840946 -3.63671875 25.0859375 C6.07382865 17.40381556 17.38247619 11.58832824 28.5 6.25 C29.41394531 5.80769043 30.32789063 5.36538086 31.26953125 4.90966797 C32.11902344 4.51150879 32.96851563 4.11334961 33.84375 3.703125 C34.59849609 3.34895508 35.35324219 2.99478516 36.13085938 2.62988281 C36.74767578 2.42202148 37.36449219 2.21416016 38 2 C38.66 2.33 39.32 2.66 40 3 C38.45892578 3.76183594 38.45892578 3.76183594 36.88671875 4.5390625 C25.64665012 10.11212136 14.68257017 15.82526601 4.125 22.625 C3.39869385 23.09268799 2.6723877 23.56037598 1.92407227 24.04223633 C-1.88227258 26.52428944 -5.49679505 29.09610877 -9 32 C-10.17712442 32.92995276 -11.36338659 33.84857832 -12.5625 34.75 C-13.12066406 35.17796875 -13.67882813 35.6059375 -14.25390625 36.046875 C-16 37 -16 37 -20 37 C-19.33013875 33.57670613 -17.99252558 30.95136699 -16.26953125 27.9296875 C-15.71330078 26.95 -15.15707031 25.9703125 -14.58398438 24.9609375 C-13.99939453 23.94257813 -13.41480469 22.92421875 -12.8125 21.875 C-12.24724609 20.87984375 -11.68199219 19.8846875 -11.09960938 18.859375 C-9.41249353 15.89870893 -7.70821454 12.94853328 -6 10 C-5.44103027 9.0193457 -4.88206055 8.03869141 -4.30615234 7.02832031 C-3.77586426 6.11405273 -3.24557617 5.19978516 -2.69921875 4.2578125 C-2.22701904 3.43684082 -1.75481934 2.61586914 -1.26831055 1.77001953 C-0.84976807 1.18591309 -0.43122559 0.60180664 0 0 Z " fill="#283AC5" transform="translate(69,169)"/>
<path d="M0 0 C7.59 0 15.18 0 23 0 C23 7.92 23 15.84 23 24 C16.07 24 9.14 24 2 24 C1.67 25.32 1.34 26.64 1 28 C0.34 26.35 -0.32 24.7 -1 23 C-7.93 23 -14.86 23 -22 23 C-22 22.67 -22 22.34 -22 22 C-15.07 22 -8.14 22 -1 22 C-0.67 21.34 -0.34 20.68 0 20 C10.395 20.99 10.395 20.99 21 22 C21 15.07 21 8.14 21 1 C14.07 1 7.14 1 0 1 C0 0.67 0 0.34 0 0 Z " fill="#2334C1" transform="translate(176,57)"/>
<path d="M0 0 C1 1 1 1 1.11352539 2.85766602 C1.10828857 3.64842529 1.10305176 4.43918457 1.09765625 5.25390625 C1.09443359 6.10791016 1.09121094 6.96191406 1.08789062 7.84179688 C1.07951172 8.73962891 1.07113281 9.63746094 1.0625 10.5625 C1.05798828 11.46419922 1.05347656 12.36589844 1.04882812 13.29492188 C1.03700225 15.53001314 1.0205222 17.76497437 1 20 C-3.06639825 21.1366726 -6.99270758 21.14737223 -11.1875 21.125 C-11.92419922 21.12886719 -12.66089844 21.13273437 -13.41992188 21.13671875 C-18.87331509 21.12668491 -18.87331509 21.12668491 -20 20 C-20.08651611 18.58429877 -20.10704904 17.164405 -20.09765625 15.74609375 C-20.09443359 14.89208984 -20.09121094 14.03808594 -20.08789062 13.15820312 C-20.07951172 12.26037109 -20.07113281 11.36253906 -20.0625 10.4375 C-20.05798828 9.53580078 -20.05347656 8.63410156 -20.04882812 7.70507812 C-20.03700225 5.46998686 -20.0205222 3.23502563 -20 1 C-6.61228407 -0.24952015 -6.61228407 -0.24952015 0 0 Z M-18 2 C-18 7.28 -18 12.56 -18 18 C-8.89073811 19.06989073 -8.89073811 19.06989073 0 17 C0 12.05 0 7.1 0 2 C-5.94 2 -11.88 2 -18 2 Z " fill="#2A39BE" transform="translate(199,17)"/>
<path d="M0 0 C2.97 0 5.94 0 9 0 C5.40016536 2.95700703 5.40016536 2.95700703 3.109375 3.203125 C-0.22525496 4.4628741 -1.34749232 7.33424522 -3 10.3125 C-3.78203915 11.66566115 -4.56462196 13.01850821 -5.34765625 14.37109375 C-5.76805176 15.1069873 -6.18844727 15.84288086 -6.62158203 16.60107422 C-9.17996152 21.05354266 -11.80948661 25.46340876 -14.4375 29.875 C-14.95763672 30.76098877 -15.47777344 31.64697754 -16.01367188 32.55981445 C-16.50287109 33.38312256 -16.99207031 34.20643066 -17.49609375 35.0546875 C-17.93107178 35.79187012 -18.3660498 36.52905273 -18.81420898 37.28857422 C-20 39 -20 39 -22 40 C-20.49140699 34.52918281 -17.86635539 30.19178109 -14.875 25.4375 C-14.38725098 24.65044678 -13.89950195 23.86339355 -13.39697266 23.05249023 C-11.93701605 20.69805317 -10.46946115 18.3485138 -9 16 C-7.80393058 14.0828247 -6.60924252 12.1648464 -5.41845703 10.24438477 C-4.43658124 8.66175904 -3.44894923 7.08270867 -2.4609375 5.50390625 C-0.88718034 3.00313783 -0.88718034 3.00313783 0 0 Z " fill="#2233C5" transform="translate(94,127)"/>
<path d="M0 0 C0.99 1.485 0.99 1.485 2 3 C5.52106285 6.8388933 9.3196031 9.71650195 13.6875 12.5 C19.85569028 16.52361564 25.89552346 20.70085022 31.875 25 C32.66608154 25.56396484 33.45716309 26.12792969 34.2722168 26.70898438 C35.37110229 27.50272461 35.37110229 27.50272461 36.4921875 28.3125 C37.14558105 28.78300781 37.79897461 29.25351563 38.47216797 29.73828125 C40 31 40 31 41 33 C36.10944259 31.41692939 32.47419556 28.57217538 28.4375 25.5 C27.1258298 24.50759264 25.81208857 23.51791546 24.49609375 22.53125 C23.92044678 22.09361328 23.3447998 21.65597656 22.75170898 21.20507812 C20.90608506 19.93539176 19.02331171 18.95606123 17 18 C17 17.34 17 16.68 17 16 C16.29359375 15.73574219 15.5871875 15.47148438 14.859375 15.19921875 C2.37193393 9.96199961 2.37193393 9.96199961 0.06640625 4.984375 C-0.1875 3.0625 -0.1875 3.0625 0 0 Z " fill="#2537C7" transform="translate(98,41)"/>
<path d="M0 0 C0.33 0 0.66 0 1 0 C0.85860519 2.25028329 0.71171997 4.50022206 0.5625 6.75 C0.48128906 8.00296875 0.40007813 9.2559375 0.31640625 10.546875 C0.07484478 13.18317553 -0.24283934 15.48037294 -1 18 C-0.01 18 0.98 18 2 18 C2.33 17.01 2.66 16.02 3 15 C3.33 15.66 3.66 16.32 4 17 C3.34 17.99 2.68 18.98 2 20 C-0.625 20.1875 -0.625 20.1875 -3 20 C-2.69140975 17.22867983 -2.3782967 14.45800014 -2.0625 11.6875 C-1.97548828 10.90181641 -1.88847656 10.11613281 -1.79882812 9.30664062 C-1.71181641 8.54931641 -1.62480469 7.79199219 -1.53515625 7.01171875 C-1.41732788 5.96697388 -1.41732788 5.96697388 -1.29711914 4.90112305 C-1 3 -1 3 0 0 Z " fill="#2C3DC3" transform="translate(43,178)"/>
<path d="M0 0 C4.52089547 1.5013105 7.98252555 4.02974542 11.6875 6.9375 C12.26822266 7.38029297 12.84894531 7.82308594 13.44726562 8.27929688 C16.1540075 10.37897757 18.08384934 12.12577401 20 15 C12.51166205 11.56417435 5.52147208 6.09265884 0 0 Z " fill="#2636C8" transform="translate(139,74)"/>
<path d="M0 0 C0.33 1.32 0.66 2.64 1 4 C-1.24940295 4.08119503 -3.49964871 4.13927819 -5.75 4.1875 C-7.00296875 4.22230469 -8.2559375 4.25710937 -9.546875 4.29296875 C-13.14109357 3.98802939 -14.44725126 3.45605371 -17 1 C-16.19175781 1.01160156 -15.38351563 1.02320313 -14.55078125 1.03515625 C-13.48214844 1.04417969 -12.41351563 1.05320313 -11.3125 1.0625 C-9.72888672 1.07990234 -9.72888672 1.07990234 -8.11328125 1.09765625 C-5.27589738 1.00865425 -2.7561081 0.64939838 0 0 Z " fill="#2F43DF" transform="translate(198,34)"/>
<path d="M0 0 C1.12864571 2.82503443 0.99492545 4.01633704 0.07421875 6.98046875 C-0.38339844 8.03878906 -0.84101563 9.09710938 -1.3125 10.1875 C-1.76238281 11.25355469 -2.21226562 12.31960937 -2.67578125 13.41796875 C-4 16 -4 16 -6 17 C-6 15.35 -6 13.7 -6 12 C-5.34 12 -4.68 12 -4 12 C-3.79503906 11.38511719 -3.59007812 10.77023438 -3.37890625 10.13671875 C-2.25260417 6.7578125 -1.12630208 3.37890625 0 0 Z " fill="#283ACB" transform="translate(162,106)"/>
<path d="M0 0 C7.19923737 0.36606292 7.19923737 0.36606292 11 3.375 C13 6 13 6 13 9 C12.34644531 8.38511719 12.34644531 8.38511719 11.6796875 7.7578125 C7.95637366 4.38909998 4.99214035 2.21759521 0 1 C0 0.67 0 0.34 0 0 Z " fill="#2335C8" transform="translate(97,102)"/>
<path d="M0 0 C2.97 0 5.94 0 9 0 C7.3125 1.5625 7.3125 1.5625 5 3 C2.25 2.6875 2.25 2.6875 0 2 C0 1.34 0 0.68 0 0 Z " fill="#2A3DD5" transform="translate(94,127)"/>
<path d="M0 0 C2 1 2 1 2 1 Z " fill="#3B53ED" transform="translate(100,177)"/>
<path d="M0 0 C2 1 2 1 2 1 Z " fill="#384EF7" transform="translate(99,105)"/>
<path d="M0 0 C2 1 2 1 2 1 Z " fill="#3D54EE" transform="translate(191,81)"/>
<path d="" fill="#344DF3" transform="translate(0,0)"/>
<path d="" fill="#3B52E6" transform="translate(0,0)"/>
<path d="" fill="#5866B7" transform="translate(0,0)"/>
<path d="" fill="#505DA6" transform="translate(0,0)"/>
<path d="" fill="#4458D4" transform="translate(0,0)"/>
<path d="" fill="#3B50E3" transform="translate(0,0)"/>
<path d="" fill="#3B51F0" transform="translate(0,0)"/>
<path d="" fill="#3D51EE" transform="translate(0,0)"/>
<path d="" fill="#3D54EE" transform="translate(0,0)"/>
<path d="" fill="#3951F3" transform="translate(0,0)"/>
<path d="" fill="#3A4EF3" transform="translate(0,0)"/>
<path d="" fill="#3C50F3" transform="translate(0,0)"/>
<path d="" fill="#3950F1" transform="translate(0,0)"/>
<path d="" fill="#3A52E8" transform="translate(0,0)"/>
<path d="" fill="#3950F5" transform="translate(0,0)"/>
<path d="" fill="#3B52F2" transform="translate(0,0)"/>
<path d="" fill="#3A52F5" transform="translate(0,0)"/>
<path d="" fill="#3A50F2" transform="translate(0,0)"/>
<path d="" fill="#3A52E8" transform="translate(0,0)"/>
<path d="" fill="#394FF4" transform="translate(0,0)"/>
<path d="" fill="#384DF6" transform="translate(0,0)"/>
<path d="" fill="#3B4FE4" transform="translate(0,0)"/>
<path d="" fill="#4157EF" transform="translate(0,0)"/>
<path d="" fill="#3C50E4" transform="translate(0,0)"/>
<path d="" fill="#4055F3" transform="translate(0,0)"/>
<path d="" fill="#374BF4" transform="translate(0,0)"/>
<path d="" fill="#3B50E5" transform="translate(0,0)"/>
<path d="" fill="#3A4FF7" transform="translate(0,0)"/>
<path d="" fill="#394FF3" transform="translate(0,0)"/>
<path d="" fill="#3753F5" transform="translate(0,0)"/>
<path d="" fill="#4258F2" transform="translate(0,0)"/>
<path d="" fill="#3850E7" transform="translate(0,0)"/>
<path d="" fill="#384FF2" transform="translate(0,0)"/>
<path d="" fill="#3851F5" transform="translate(0,0)"/>
<path d="" fill="#3A4EF4" transform="translate(0,0)"/>
<path d="" fill="#3850F5" transform="translate(0,0)"/>
<path d="" fill="#3C52EA" transform="translate(0,0)"/>
<path d="" fill="#3850F6" transform="translate(0,0)"/>
<path d="" fill="#3C55EF" transform="translate(0,0)"/>
<path d="" fill="#3953ED" transform="translate(0,0)"/>
<path d="" fill="#3850EC" transform="translate(0,0)"/>
<path d="" fill="#3851F0" transform="translate(0,0)"/>
<path d="" fill="#3852F6" transform="translate(0,0)"/>
<path d="" fill="#3851F4" transform="translate(0,0)"/>
<path d="" fill="#3752F5" transform="translate(0,0)"/>
<path d="" fill="#3853F5" transform="translate(0,0)"/>
<path d="" fill="#3A51F5" transform="translate(0,0)"/>
<path d="" fill="#3C55F6" transform="translate(0,0)"/>
<path d="" fill="#3951E8" transform="translate(0,0)"/>
<path d="" fill="#3850E4" transform="translate(0,0)"/>
<path d="" fill="#3C55F0" transform="translate(0,0)"/>
<path d="" fill="#3B52ED" transform="translate(0,0)"/>
<path d="" fill="#495386" transform="translate(0,0)"/>
<path d="" fill="#4D5CAF" transform="translate(0,0)"/>
<path d="" fill="#49558D" transform="translate(0,0)"/>
</svg>
